<?xml version="1.0" encoding="UTF-8"?>
<svg width="25px" height="25px" viewBox="0 0 25 25" version="1.1" xmlns="http://www.w3.org/2000/svg" xmlns:xlink="http://www.w3.org/1999/xlink">
    <!-- Generator: Sketch 63.1 (92452) - https://sketch.com -->
    <title>Shape</title>
    <desc>Created with Sketch.</desc>
    <g id="Page-1" stroke="none" stroke-width="1" fill="none" fill-rule="evenodd">
        <path d="M0,0 L0,25 L25,25 L25,0 L0,0 Z M15.1395833,20.40625 C14.7166667,20.4875 14.5833333,20.228125 14.5833333,20.00625 L14.5833333,17.7197917 C14.5833333,16.9416667 14.3104167,16.4354167 14.0104167,16.1770833 C15.8666667,15.9708333 17.8166667,15.265625 17.8166667,12.065625 C17.8166667,11.1552083 17.4927083,10.4114583 16.9583333,9.82916667 C17.0447917,9.61875 17.3302083,8.77083333 16.8760417,7.62395833 C16.8760417,7.62395833 16.1770833,7.4 14.5864583,8.478125 C13.9208333,8.290625 13.2083333,8.2 12.5,8.19583333 C11.7916667,8.19895833 11.0791667,8.290625 10.4135417,8.47604167 C8.821875,7.39791667 8.121875,7.621875 8.121875,7.621875 C7.66979167,8.76979167 7.95520833,9.61666667 8.04166667,9.828125 C7.50833333,10.4114583 7.18333333,11.1541667 7.18333333,12.0645833 C7.18333333,15.25625 9.128125,15.971875 10.9802083,16.1833333 C10.7416667,16.3916667 10.5260417,16.7583333 10.4510417,17.2979167 C9.975,17.5104167 8.76979167,17.878125 8.02604167,16.6041667 C8.02604167,16.6041667 7.58541667,15.8041667 6.74791667,15.7447917 C6.74791667,15.7447917 5.93541667,15.734375 6.690625,16.2520833 C6.690625,16.2520833 7.2375,16.5083333 7.61666667,17.4708333 C7.61666667,17.4708333 8.09895833,18.9583333 10.4166667,18.4541667 L10.4166667,20.0052083 C10.4166667,20.225 10.2822917,20.4833333 9.86666667,20.40625 C6.55416667,19.3052083 4.16666667,16.18125 4.16666667,12.5 C4.16666667,7.896875 7.89791667,4.16666667 12.5,4.16666667 C17.1020833,4.16666667 20.8333333,7.896875 20.8333333,12.5 C20.8333333,16.1802083 18.4489583,19.303125 15.1395833,20.40625 L15.1395833,20.40625 Z" id="Shape" fill="#004744" fill-rule="nonzero"></path>
    </g>
</svg>