<?xml version="1.0" encoding="UTF-8"?>
<svg width="638px" height="335px" viewBox="0 0 638 335" version="1.1" xmlns="http://www.w3.org/2000/svg" xmlns:xlink="http://www.w3.org/1999/xlink">
    <!-- Generator: Sketch 63.1 (92452) - https://sketch.com -->
    <title>Group</title>
    <desc>Created with Sketch.</desc>
    <g id="Page-1" stroke="none" stroke-width="1" fill="none" fill-rule="evenodd" opacity="0.311197917">
        <g id="Group" transform="translate(0.000000, -4.000000)" fill-rule="nonzero">
            <g id="gym-svgrepo-com" transform="translate(574.000000, 30.000000)">
                <path d="M59.507375,6.96439331 C55.134,2.35857741 50.547375,0.0020083682 45.534,0.0020083682 C39.987375,0.0020083682 34.867375,3.42966527 31.880625,9.10656904 C29.000625,3.42953975 23.880625,0.0020083682 18.334,0.0020083682 C13.427375,0.0020083682 8.840625,2.25138075 4.360625,6.96439331 C-0.65275,12.3200837 -2.89275,24.6380335 6.280625,33.8497908 C10.654,38.2414644 31.02725,59.342636 31.240625,59.5569038 C31.454,59.7711715 31.66725,59.8782427 31.98725,59.8782427 C32.200625,59.8782427 32.520625,59.7711715 32.733875,59.5569038 C32.947125,59.342636 53.213875,38.2414644 57.58725,33.8497908 C62.813875,28.4941004 63.880625,22.8171967 63.880625,18.9611297 C63.880625,14.3551883 62.174,9.85644351 59.507375,6.96439331 Z M56.094,32.3501674 C52.254,36.2062343 35.720625,53.3442678 31.987375,57.3075314 C28.254,53.4514644 11.72075,36.2062343 7.88075,32.3501674 C-0.332625,24.1024268 1.48075,13.1769038 5.96075,8.46401674 C9.907375,4.17953975 13.96075,2.14430962 18.334125,2.14430962 C23.6675,2.14430962 28.4675,6.00037657 30.92075,12.1058159 C31.027375,12.4271548 31.454125,12.7484937 31.88075,12.7484937 C32.307375,12.7484937 32.734125,12.5342259 32.84075,12.1058159 C35.294125,6.00037657 40.094125,2.14430962 45.534125,2.14430962 C49.9075,2.14430962 54.0675,4.28661088 58.014125,8.46401674 C62.387375,13.1769038 64.200625,24.2094979 56.094,32.3501674 Z" id="Shape" fill="#1D09C0"></path>
                <path d="M47.347375,19.175272 C46.706375,19.175272 46.09775,19.347113 45.564625,19.6458577 C45.0735,18.1474895 43.648125,17.0329707 42.014,17.0329707 C39.987375,17.0329707 38.280625,18.7467364 38.280625,20.7819665 L38.280625,22.4957322 L25.480625,22.4957322 L25.480625,20.7819665 C25.480625,18.7468619 23.774,17.0329707 21.74725,17.0329707 C20.113125,17.0329707 18.68775,18.147364 18.196625,19.6458577 C17.6635,19.347113 17.054875,19.175272 16.413875,19.175272 C14.38725,19.175272 12.6805,20.8890377 12.6805,22.9242678 L12.6805,28.2799582 C12.6805,30.3150628 14.387125,32.028954 16.413875,32.028954 C17.057375,32.028954 17.668375,31.8665272 18.202875,31.5768201 C18.699625,33.0658996 20.119875,34.1712552 21.747125,34.1712552 C23.77375,34.1712552 25.4805,32.5645607 25.4805,30.4222594 L25.4805,28.922636 L38.2805,28.922636 L38.2805,30.4222594 C38.2805,32.457364 39.987125,34.1712552 42.013875,34.1712552 C43.660125,34.1712552 45.095125,33.1112134 45.575875,31.5651464 C46.106125,31.86 46.710875,32.0290795 47.347125,32.0290795 C49.37375,32.0290795 51.0805,30.4223849 51.0805,28.2800837 L51.0805,22.9243933 C51.0805,20.8890377 49.374,19.175272 47.347375,19.175272 Z M16.414,29.8865272 C15.560625,29.8865272 14.814,29.1367782 14.814,28.2798326 L14.814,22.9241423 C14.814,22.0671967 15.560625,21.3174477 16.414,21.3174477 C17.267375,21.3174477 18.014,22.0671967 18.014,22.9241423 L18.014,28.2798326 C18.014,29.1367782 17.267375,29.8865272 16.414,29.8865272 Z M23.347375,30.4221339 C23.347375,31.2790795 22.60075,32.0288285 21.747375,32.0288285 C20.894,32.0288285 20.147375,31.2790795 20.147375,30.4221339 L20.147375,28.2798326 L20.147375,22.9241423 L20.147375,20.781841 C20.147375,19.9248954 20.894,19.1751464 21.747375,19.1751464 C22.60075,19.1751464 23.347375,19.9248954 23.347375,20.781841 L23.347375,23.5668201 L23.347375,27.8512971 L23.347375,30.4221339 Z M25.480625,26.7802092 L25.480625,24.6379079 L38.280625,24.6379079 L38.280625,26.7802092 L25.480625,26.7802092 Z M43.614,30.4221339 C43.614,31.2790795 42.867375,32.0288285 42.014,32.0288285 C41.160625,32.0288285 40.414,31.2790795 40.414,30.4221339 L40.414,27.8514226 L40.414,23.5669456 L40.414,20.7819665 C40.414,19.9250209 41.160625,19.175272 42.014,19.175272 C42.867375,19.175272 43.614,19.9250209 43.614,20.7819665 L43.614,22.9242678 L43.614,28.2799582 L43.614,30.4221339 Z M48.947375,28.2798326 C48.947375,29.1367782 48.20075,29.8865272 47.347375,29.8865272 C46.494,29.8865272 45.747375,29.1367782 45.747375,28.2798326 L45.747375,22.9241423 C45.747375,22.0671967 46.494,21.3174477 47.347375,21.3174477 C48.20075,21.3174477 48.947375,22.0671967 48.947375,22.9241423 L48.947375,28.2798326 Z" id="Shape" fill="#1D0BC4"></path>
            </g>
            <g id="gym-svgrepo-com" transform="translate(0.085470, 181.000000)">
                <path d="M59.507375,6.96439331 C55.134,2.35857741 50.547375,0.0020083682 45.534,0.0020083682 C39.987375,0.0020083682 34.867375,3.42966527 31.880625,9.10656904 C29.000625,3.42953975 23.880625,0.0020083682 18.334,0.0020083682 C13.427375,0.0020083682 8.840625,2.25138075 4.360625,6.96439331 C-0.65275,12.3200837 -2.89275,24.6380335 6.280625,33.8497908 C10.654,38.2414644 31.02725,59.342636 31.240625,59.5569038 C31.454,59.7711715 31.66725,59.8782427 31.98725,59.8782427 C32.200625,59.8782427 32.520625,59.7711715 32.733875,59.5569038 C32.947125,59.342636 53.213875,38.2414644 57.58725,33.8497908 C62.813875,28.4941004 63.880625,22.8171967 63.880625,18.9611297 C63.880625,14.3551883 62.174,9.85644351 59.507375,6.96439331 Z M56.094,32.3501674 C52.254,36.2062343 35.720625,53.3442678 31.987375,57.3075314 C28.254,53.4514644 11.72075,36.2062343 7.88075,32.3501674 C-0.332625,24.1024268 1.48075,13.1769038 5.96075,8.46401674 C9.907375,4.17953975 13.96075,2.14430962 18.334125,2.14430962 C23.6675,2.14430962 28.4675,6.00037657 30.92075,12.1058159 C31.027375,12.4271548 31.454125,12.7484937 31.88075,12.7484937 C32.307375,12.7484937 32.734125,12.5342259 32.84075,12.1058159 C35.294125,6.00037657 40.094125,2.14430962 45.534125,2.14430962 C49.9075,2.14430962 54.0675,4.28661088 58.014125,8.46401674 C62.387375,13.1769038 64.200625,24.2094979 56.094,32.3501674 Z" id="Shape" fill="#1D09C0"></path>
                <path d="M47.347375,19.175272 C46.706375,19.175272 46.09775,19.347113 45.564625,19.6458577 C45.0735,18.1474895 43.648125,17.0329707 42.014,17.0329707 C39.987375,17.0329707 38.280625,18.7467364 38.280625,20.7819665 L38.280625,22.4957322 L25.480625,22.4957322 L25.480625,20.7819665 C25.480625,18.7468619 23.774,17.0329707 21.74725,17.0329707 C20.113125,17.0329707 18.68775,18.147364 18.196625,19.6458577 C17.6635,19.347113 17.054875,19.175272 16.413875,19.175272 C14.38725,19.175272 12.6805,20.8890377 12.6805,22.9242678 L12.6805,28.2799582 C12.6805,30.3150628 14.387125,32.028954 16.413875,32.028954 C17.057375,32.028954 17.668375,31.8665272 18.202875,31.5768201 C18.699625,33.0658996 20.119875,34.1712552 21.747125,34.1712552 C23.77375,34.1712552 25.4805,32.5645607 25.4805,30.4222594 L25.4805,28.922636 L38.2805,28.922636 L38.2805,30.4222594 C38.2805,32.457364 39.987125,34.1712552 42.013875,34.1712552 C43.660125,34.1712552 45.095125,33.1112134 45.575875,31.5651464 C46.106125,31.86 46.710875,32.0290795 47.347125,32.0290795 C49.37375,32.0290795 51.0805,30.4223849 51.0805,28.2800837 L51.0805,22.9243933 C51.0805,20.8890377 49.374,19.175272 47.347375,19.175272 Z M16.414,29.8865272 C15.560625,29.8865272 14.814,29.1367782 14.814,28.2798326 L14.814,22.9241423 C14.814,22.0671967 15.560625,21.3174477 16.414,21.3174477 C17.267375,21.3174477 18.014,22.0671967 18.014,22.9241423 L18.014,28.2798326 C18.014,29.1367782 17.267375,29.8865272 16.414,29.8865272 Z M23.347375,30.4221339 C23.347375,31.2790795 22.60075,32.0288285 21.747375,32.0288285 C20.894,32.0288285 20.147375,31.2790795 20.147375,30.4221339 L20.147375,28.2798326 L20.147375,22.9241423 L20.147375,20.781841 C20.147375,19.9248954 20.894,19.1751464 21.747375,19.1751464 C22.60075,19.1751464 23.347375,19.9248954 23.347375,20.781841 L23.347375,23.5668201 L23.347375,27.8512971 L23.347375,30.4221339 Z M25.480625,26.7802092 L25.480625,24.6379079 L38.280625,24.6379079 L38.280625,26.7802092 L25.480625,26.7802092 Z M43.614,30.4221339 C43.614,31.2790795 42.867375,32.0288285 42.014,32.0288285 C41.160625,32.0288285 40.414,31.2790795 40.414,30.4221339 L40.414,27.8514226 L40.414,23.5669456 L40.414,20.7819665 C40.414,19.9250209 41.160625,19.175272 42.014,19.175272 C42.867375,19.175272 43.614,19.9250209 43.614,20.7819665 L43.614,22.9242678 L43.614,28.2799582 L43.614,30.4221339 Z M48.947375,28.2798326 C48.947375,29.1367782 48.20075,29.8865272 47.347375,29.8865272 C46.494,29.8865272 45.747375,29.1367782 45.747375,28.2798326 L45.747375,22.9241423 C45.747375,22.0671967 46.494,21.3174477 47.347375,21.3174477 C48.20075,21.3174477 48.947375,22.0671967 48.947375,22.9241423 L48.947375,28.2798326 Z" id="Shape" fill="#1D0BC4"></path>
            </g>
            <g id="dumbbell-gym-svgrepo-com" transform="translate(46.000000, 279.000000)" fill="#1D0BC4">
                <path d="M32.195494,23.9883208 C31.8770833,23.6705406 31.5022976,23.4529366 31.106625,23.3351168 C31.871125,22.3304139 31.7916369,20.9339584 30.8671786,20.0113307 C29.8551131,19.0012693 28.2737976,19.0012693 27.2617976,20.0113307 L26.3762321,20.8951426 L21.9169107,16.4446515 L26.3723036,11.9980812 L27.2617321,12.8779723 C27.7044821,13.3829703 28.3370476,13.6354693 29.0327976,13.6354693 C29.7285476,13.6354693 30.2978631,13.2567208 30.8038631,12.8147822 C31.3098631,12.3729089 31.5628631,11.6784713 31.5628631,11.0472238 C31.5628631,10.5136693 31.3813631,9.98037624 31.0198036,9.52301584 C31.4399643,9.42800198 31.840875,9.23307327 32.1321131,8.90091683 L32.2586131,8.77466733 C33.2074286,7.82773069 33.2074286,6.31273663 32.2586131,5.3658 L27.7044167,0.820621782 C26.6923512,-0.189439604 25.1110357,-0.189439604 24.0990357,0.820621782 C23.769756,1.1492495 23.548381,1.53812673 23.4333393,1.94791485 C22.4233036,1.14193069 20.9914048,1.20766931 20.0509048,2.14630693 C19.0388393,3.15636832 19.0388393,4.73455248 20.0509048,5.74454851 L20.9720893,6.65587129 L16.5403988,11.0787861 L12.021756,6.56909109 L12.9033929,5.68142376 C13.4093929,5.2395505 13.6623929,4.60823762 13.6623929,3.91386535 C13.6623929,3.21949307 13.4093929,2.5881802 12.9033929,2.14630693 C12.4606429,1.64130891 11.8280774,1.3888099 11.1323274,1.3888099 C10.6152619,1.3888099 10.0982619,1.55779604 9.65033929,1.89524554 C9.53621429,1.48166733 9.31379167,1.08893465 8.9817619,0.757562376 C7.96969643,-0.25249901 6.38838095,-0.25249901 5.37638095,0.757562376 L0.885565476,5.2395505 C-0.1265,6.24961188 -0.1265,7.82779604 0.885565476,8.83779208 C1.20731548,9.15890495 1.58026786,9.37748911 1.97175,9.49439406 C1.21006548,10.4988356 1.29047024,11.8932 2.21388095,12.8147822 C2.71988095,13.3197802 3.35244643,13.5722792 3.98494643,13.5722792 C4.61744643,13.5722792 5.2500119,13.3197802 5.7560119,12.8779069 L6.66914286,11.9585465 L11.1640833,16.4445861 L6.6415119,20.958202 L5.75594643,20.0744554 C5.31319643,19.5694574 4.61738095,19.3169584 3.98488095,19.3169584 C3.35238095,19.3169584 2.71981548,19.5694574 2.21381548,20.0744554 C1.70781548,20.5163287 1.45481548,21.1476416 1.45481548,21.8420139 C1.45481548,22.3782475 1.63808333,22.9141545 2.00317857,23.3729525 C1.57372024,23.4832574 1.16527976,23.7091604 0.822315476,24.0514455 L0.759065476,24.1145703 C-0.18975,25.0615069 -0.18975,26.6396911 0.759065476,27.5865624 L5.4397619,32.2579901 C5.8825119,32.6998634 6.51507738,32.9523624 7.08432738,32.9523624 C7.71682738,32.9523624 8.28614286,32.6998634 8.72889286,32.2579901 L8.91864286,32.1317406 C9.26160714,31.7894554 9.48795833,31.3817584 9.59848214,30.9532158 C10.058256,31.3175881 10.5952262,31.5004931 11.1324583,31.5004931 C11.7649583,31.5004931 12.4607738,31.2479941 12.9035238,30.8061208 C13.9155893,29.7960594 13.9155893,28.2178752 12.9035238,27.2078792 L12.0179583,26.3240673 L16.5405298,21.8104515 L20.9998512,26.2609426 L20.1142857,27.1446891 C19.6082857,27.5865624 19.3552857,28.2178752 19.3552857,28.9122475 C19.3552857,29.543495 19.6715357,30.1748079 20.1142857,30.6798059 C20.5570357,31.184804 21.1896012,31.437303 21.8853512,31.437303 C22.4158393,31.437303 22.9901964,31.2589723 23.423125,30.9037485 C23.5348929,31.3273248 23.759869,31.7299248 24.0991667,32.0685505 L24.3521667,32.3210495 C24.7316667,32.7629228 25.3009821,32.9523624 25.8702321,32.9523624 C26.4394821,32.9523624 27.0087976,32.699798 27.4515476,32.2579248 L32.258744,27.4602475 C33.2075595,26.5133109 33.2075595,24.9983168 32.258744,24.0513802 L32.195494,23.9883208 Z M24.9847321,1.76755842 C25.2377321,1.51505941 25.5539821,1.3888099 25.8702976,1.3888099 C26.2497976,1.3888099 26.5660476,1.51505941 26.7557976,1.83068317 L31.309994,6.37586139 C31.752744,6.81773465 31.752744,7.51217228 31.309994,7.95404554 L31.246744,8.0171703 C30.8753631,8.44074653 30.2375595,8.50759604 29.7428214,8.22059406 L24.7743571,3.26196832 C24.6624583,3.07063366 24.6052321,2.86119802 24.6052321,2.65130495 C24.6052321,2.33568119 24.7317321,2.02005743 24.9847321,1.76755842 Z M20.9998512,4.86080198 C20.4938512,4.35580396 20.4938512,3.59824158 20.9998512,3.09324356 C21.2528512,2.84074455 21.5691012,2.71449505 21.8854167,2.71449505 C22.2017321,2.71449505 22.5179167,2.84074455 22.7709821,3.09324356 L29.918494,10.226602 C30.171494,10.479101 30.297994,10.7947248 30.297994,11.1104139 C30.297994,11.426103 30.171494,11.7416614 29.918494,11.9942257 C29.475744,12.4992238 28.6534286,12.4992238 28.1474286,11.9942257 L27.2618631,11.1104139 L27.2618631,11.1104139 L21.8854167,5.74461386 L21.8854167,5.74461386 L20.9998512,4.86080198 Z M21.8221012,7.57529703 L25.4274821,11.1735386 L21.0314107,15.560905 L17.4260298,11.9626634 L21.8221012,7.57529703 Z M1.77106548,6.18648713 L6.1987619,1.70443366 C6.4517619,1.45193465 6.7680119,1.32568515 7.08432738,1.32568515 C7.46382738,1.32568515 7.78007738,1.45193465 8.03314286,1.70443366 C8.50489881,2.17525545 8.53639286,2.8653802 8.12847619,3.36593465 L3.29279762,8.14930099 C2.80873214,8.44571287 2.19947619,8.38160792 1.77106548,7.95404554 C1.26506548,7.44898218 1.26506548,6.69148515 1.77106548,6.18648713 Z M4.87044643,11.9310356 C4.36444643,12.4360337 3.60538095,12.4360337 3.09938095,11.9310356 C2.59338095,11.4260376 2.59338095,10.6684752 3.09938095,10.1634772 L4.18373214,9.08127327 C4.28783929,9.00782376 4.39044048,8.9269901 4.49094643,8.83779208 L8.98189286,4.35573861 C9.09961905,4.23824554 9.20307143,4.1127802 9.29342857,3.98169505 L10.2469583,3.03005347 C10.4999583,2.77755446 10.8162083,2.65130495 11.1325238,2.65130495 C11.4488393,2.65130495 11.7650238,2.77755446 12.0180893,3.03005347 C12.2710893,3.28255248 12.3975893,3.59817624 12.3975893,3.91386535 C12.3975893,4.22955446 12.2710893,4.54511287 12.0180893,4.79767723 L11.1325238,5.68148911 L5.75607738,11.0472891 L4.87044643,11.9310356 Z M9.32976786,9.27973069 L11.1324583,7.51217228 L15.6333571,11.9842931 L15.6234048,11.9942257 L20.9998512,17.3600257 L21.0217202,17.3382 L25.4275476,21.7158297 L21.8221667,25.3140713 L7.55071429,11.0708792 L9.32976786,9.27973069 Z M8.03307738,31.1848693 L7.84332738,31.3742436 C7.46382738,31.7529921 6.7680119,31.7529921 6.3885119,31.3742436 L1.70781548,26.7659406 C1.26506548,26.2609426 1.26506548,25.5033802 1.70781548,25.0615069 L1.77106548,24.9983822 C2.02406548,24.7458832 2.34031548,24.6196337 2.65663095,24.6196337 C2.97294643,24.6196337 3.28913095,24.6827584 3.54219643,24.9352574 L8.03314286,29.4173109 C8.53907738,29.9223089 8.53907738,30.6798059 8.03307738,31.1848693 Z M12.0179583,28.0916257 C12.5239583,28.5966238 12.5239583,29.3541861 12.0179583,29.8591842 C11.5119583,30.3641822 10.7528929,30.3641822 10.2468929,29.8591842 L8.91870833,28.5336297 C8.91864286,28.5335644 8.91864286,28.533499 8.91857738,28.533499 L4.42769643,24.0514455 C4.42769643,24.0514455 4.42769643,24.0514455 4.42769643,24.0514455 L3.09938095,22.7257604 C2.84638095,22.4732614 2.71988095,22.1576376 2.71988095,21.8419485 C2.71988095,21.5262594 2.84638095,21.210701 3.09938095,20.9581366 C3.35238095,20.7056376 3.66863095,20.5793881 3.98494643,20.5793881 C4.30119643,20.5793881 4.61744643,20.7056376 4.87044643,20.9581366 L5.7560119,21.8419485 L11.1324583,27.2077485 L12.0179583,28.0916257 Z M15.6233393,20.9582673 L11.1323929,25.4403208 L7.5270119,21.8420792 L12.0812083,17.3600257 L12.0814048,17.3602218 L15.6233393,20.9582673 Z M20.9998512,29.7960594 C20.7468512,29.5435604 20.6203512,29.2279366 20.6203512,28.9122475 C20.6203512,28.5965584 20.7468512,28.281 20.9998512,28.0284356 L21.8854167,27.1446238 L21.8854167,27.1446238 L27.2618631,21.7788238 L27.2618631,21.7788238 L28.1473631,20.8950772 C28.4003631,20.6425782 28.7166131,20.5163287 29.0329286,20.5163287 C29.349244,20.5163287 29.6654286,20.6425782 29.918494,20.8950772 C30.424494,21.4000752 30.424494,22.1576376 29.918494,22.6626356 L28.590244,23.9882554 C28.590244,23.9882554 28.5901786,23.9883208 28.5901786,23.9883208 L26.3447381,26.2293149 L22.7709821,29.7959941 C22.3281012,30.3010574 21.5058512,30.3010574 20.9998512,29.7960594 Z M31.373244,26.6396911 L26.5660476,31.4373683 C26.1865476,31.8161168 25.6172321,31.8161168 25.2377321,31.4373683 L24.9847321,31.1848693 C24.4787321,30.6798713 24.4787321,29.9223089 24.9847321,29.4173109 L27.2617321,27.1448198 L29.6970536,24.7569921 C29.9024524,24.6239465 30.1316845,24.5565089 30.361244,24.5565089 C30.677494,24.5565089 30.993744,24.6827584 31.3100595,24.9983822 L31.3733095,25.0615069 C31.815994,25.5033802 31.815994,26.1978178 31.373244,26.6396911 Z" id="Shape"></path>
            </g>
            <g id="dumbbell-gym-svgrepo-com" transform="translate(579.000000, 196.000000)" fill="#1D0BC4">
                <path d="M43.9029464,32.7113465 C43.46875,32.2780099 42.9576786,31.9812772 42.418125,31.8206139 C43.460625,30.4505644 43.3522321,28.5463069 42.0916071,27.2881782 C40.7115179,25.9108218 38.5551786,25.9108218 37.1751786,27.2881782 L35.9675893,28.4933762 L29.8866964,22.4245248 L35.9622321,16.3610198 L37.1750893,17.5608713 C37.7788393,18.249505 38.6414286,18.5938218 39.5901786,18.5938218 C40.5389286,18.5938218 41.3152679,18.0773465 42.0052679,17.474703 C42.6952679,16.8721485 43.0402679,15.9251881 43.0402679,15.064396 C43.0402679,14.3368218 42.7927679,13.609604 42.2997321,12.9859307 C42.8726786,12.8563663 43.419375,12.5905545 43.8165179,12.1376139 L43.9890179,11.9654554 C45.2828571,10.6741782 45.2828571,8.60827723 43.9890179,7.317 L37.77875,1.1190297 C36.3986607,-0.258326733 34.2423214,-0.258326733 32.8623214,1.1190297 C32.4133036,1.56715842 32.1114286,2.09744554 31.9545536,2.65624752 C30.5772321,1.55717822 28.6246429,1.64682178 27.3421429,2.92678218 C25.9620536,4.30413861 25.9620536,6.45620792 27.3421429,7.83347525 L28.5983036,9.07618812 L22.5550893,15.1074356 L16.3933036,8.95785149 L17.5955357,7.74739604 C18.2855357,7.14484158 18.6305357,6.2839604 18.6305357,5.33708911 C18.6305357,4.39021782 18.2855357,3.52933663 17.5955357,2.92678218 C16.9917857,2.23814851 16.1291964,1.89383168 15.1804464,1.89383168 C14.4753571,1.89383168 13.7703571,2.12426733 13.1595536,2.58442574 C13.0039286,2.02045545 12.700625,1.48491089 12.2478571,1.0330396 C10.8677679,-0.344316832 8.71142857,-0.344316832 7.33142857,1.0330396 L1.20758929,7.14484158 C-0.1725,8.52219802 -0.1725,10.6742673 1.20758929,12.0515347 C1.64633929,12.4894158 2.15491071,12.7874851 2.68875,12.946901 C1.65008929,14.3165941 1.75973214,16.218 3.01892857,17.474703 C3.70892857,18.1633366 4.57151786,18.5076535 5.43401786,18.5076535 C6.29651786,18.5076535 7.15910714,18.1633366 7.84910714,17.5607822 L9.09428571,16.3071089 L15.22375,22.4244356 L9.05660714,28.5793663 L7.84901786,27.3742574 C7.24526786,26.6856238 6.29642857,26.3413069 5.43392857,26.3413069 C4.57142857,26.3413069 3.70883929,26.6856238 3.01883929,27.3742574 C2.32883929,27.9768119 1.98383929,28.8376931 1.98383929,29.7845644 C1.98383929,30.5157921 2.23375,31.2465743 2.73160714,31.8722079 C2.14598214,32.0226238 1.58901786,32.3306733 1.12133929,32.7974257 L1.03508929,32.883505 C-0.25875,34.1747822 -0.25875,36.3268515 1.03508929,37.6180396 L7.41785714,43.9881683 C8.02160714,44.5907228 8.88419643,44.9350396 9.66044643,44.9350396 C10.5229464,44.9350396 11.2992857,44.5907228 11.9030357,43.9881683 L12.1617857,43.8160099 C12.6294643,43.3492574 12.938125,42.7933069 13.0888393,42.2089307 C13.7158036,42.705802 14.4480357,42.9552178 15.180625,42.9552178 C16.043125,42.9552178 16.9919643,42.610901 17.5957143,42.0083465 C18.9758036,40.6309901 18.9758036,38.4789208 17.5957143,37.1016535 L16.388125,35.8964554 L22.5552679,29.7415248 L28.6361607,35.8103762 L27.4285714,37.0154851 C26.7385714,37.6180396 26.3935714,38.4789208 26.3935714,39.4257921 C26.3935714,40.2865842 26.8248214,41.1474653 27.4285714,41.836099 C28.0323214,42.5247327 28.8949107,42.8690495 29.8436607,42.8690495 C30.5670536,42.8690495 31.3502679,42.6258713 31.940625,42.1414752 C32.0930357,42.7190792 32.3998214,43.2680792 32.8625,43.7298416 L33.2075,44.0741584 C33.725,44.6767129 34.5013393,44.9350396 35.2775893,44.9350396 C36.0538393,44.9350396 36.8301786,44.5906337 37.4339286,43.9880792 L43.9891964,37.4457921 C45.2830357,36.1545149 45.2830357,34.0886139 43.9891964,32.7973366 L43.9029464,32.7113465 Z M34.0700893,2.41030693 C34.4150893,2.0659901 34.8463393,1.89383168 35.2776786,1.89383168 C35.7951786,1.89383168 36.2264286,2.0659901 36.4851786,2.49638614 L42.6954464,8.69435644 C43.2991964,9.29691089 43.2991964,10.2438713 42.6954464,10.8464257 L42.6091964,10.932505 C42.1027679,11.5101089 41.2330357,11.6012673 40.5583929,11.209901 L33.7832143,4.44813861 C33.630625,4.18722772 33.5525893,3.90163366 33.5525893,3.61541584 C33.5525893,3.1850198 33.7250893,2.75462376 34.0700893,2.41030693 Z M28.6361607,6.62836634 C27.9461607,5.93973267 27.9461607,4.90669307 28.6361607,4.21805941 C28.9811607,3.87374257 29.4124107,3.70158416 29.84375,3.70158416 C30.2750893,3.70158416 30.70625,3.87374257 31.0513393,4.21805941 L40.7979464,13.9453663 C41.1429464,14.2896832 41.3154464,14.7200792 41.3154464,15.1505644 C41.3154464,15.5810495 41.1429464,16.0113564 40.7979464,16.3557624 C40.1941964,17.044396 39.0728571,17.044396 38.3828571,16.3557624 L37.1752679,15.1505644 L37.1752679,15.1505644 L29.84375,7.83356436 L29.84375,7.83356436 L28.6361607,6.62836634 Z M29.7574107,10.3299505 L34.6738393,15.2366436 L28.6791964,21.2194158 L23.7627679,16.3127228 L29.7574107,10.3299505 Z M2.41508929,8.43611881 L8.45285714,2.32422772 C8.79785714,1.97991089 9.22910714,1.80775248 9.66044643,1.80775248 C10.1779464,1.80775248 10.6091964,1.97991089 10.9542857,2.32422772 C11.5975893,2.96625743 11.6405357,3.90733663 11.0842857,4.58991089 L4.49017857,11.1126832 C3.83008929,11.5168812 2.99928571,11.4294653 2.41508929,10.8464257 C1.72508929,10.157703 1.72508929,9.12475248 2.41508929,8.43611881 Z M6.64151786,16.2695941 C5.95151786,16.9582277 4.91642857,16.9582277 4.22642857,16.2695941 C3.53642857,15.5809604 3.53642857,14.5479208 4.22642857,13.8592871 L5.70508929,12.3835545 C5.84705357,12.283396 5.98696429,12.1731683 6.12401786,12.0515347 L12.2480357,5.93964356 C12.4085714,5.77942574 12.5496429,5.60833663 12.6728571,5.42958416 L13.973125,4.13189109 C14.318125,3.78757426 14.749375,3.61541584 15.1807143,3.61541584 C15.6120536,3.61541584 16.0432143,3.78757426 16.3883036,4.13189109 C16.7333036,4.47620792 16.9058036,4.90660396 16.9058036,5.33708911 C16.9058036,5.76757426 16.7333036,6.19788119 16.3883036,6.54228713 L15.1807143,7.74748515 L7.84919643,15.0644851 L6.64151786,16.2695941 Z M12.7224107,12.6541782 L15.180625,10.2438713 L21.3182143,16.3422178 L21.3046429,16.3557624 L28.6361607,23.6727624 L28.6659821,23.643 L34.6739286,29.612495 L29.7575,34.5191881 L10.2964286,15.0966535 L12.7224107,12.6541782 Z M10.9541964,42.5248218 L10.6954464,42.7830594 C10.1779464,43.2995347 9.22910714,43.2995347 8.71160714,42.7830594 L2.32883929,36.4990099 C1.72508929,35.8103762 1.72508929,34.7773366 2.32883929,34.1747822 L2.41508929,34.088703 C2.76008929,33.7443861 3.19133929,33.5722277 3.62267857,33.5722277 C4.05401786,33.5722277 4.48517857,33.6583069 4.83026786,34.0026238 L10.9542857,40.1145149 C11.6441964,40.8031485 11.6441964,41.836099 10.9541964,42.5248218 Z M16.388125,38.3067624 C17.078125,38.995396 17.078125,40.0284356 16.388125,40.7170693 C15.698125,41.405703 14.6630357,41.405703 13.9730357,40.7170693 L12.161875,38.909495 C12.1617857,38.9094059 12.1617857,38.9093168 12.1616964,38.9093168 L6.03776786,32.7974257 C6.03776786,32.7974257 6.03776786,32.7974257 6.03776786,32.7974257 L4.22642857,30.9896733 C3.88142857,30.6453564 3.70892857,30.2149604 3.70892857,29.7844752 C3.70892857,29.3539901 3.88142857,28.9236832 4.22642857,28.5792772 C4.57142857,28.2349604 5.00267857,28.062802 5.43401786,28.062802 C5.86526786,28.062802 6.29651786,28.2349604 6.64151786,28.5792772 L7.84910714,29.7844752 L15.180625,37.1014752 L16.388125,38.3067624 Z M21.3045536,28.5794554 L15.1805357,34.6913465 L10.2641071,29.7846535 L16.474375,23.6727624 L16.4746429,23.6730297 L21.3045536,28.5794554 Z M28.6361607,40.6309901 C28.2911607,40.2866733 28.1186607,39.8562772 28.1186607,39.4257921 C28.1186607,38.9953069 28.2911607,38.565 28.6361607,38.2205941 L29.84375,37.015396 L29.84375,37.015396 L37.1752679,29.698396 L37.1752679,29.698396 L38.3827679,28.4932871 C38.7277679,28.1489703 39.1590179,27.9768119 39.5903571,27.9768119 C40.0216964,27.9768119 40.4528571,28.1489703 40.7979464,28.4932871 C41.4879464,29.1819208 41.4879464,30.2149604 40.7979464,30.9035941 L38.9866964,32.7112574 C38.9866964,32.7112574 38.9866071,32.7113465 38.9866071,32.7113465 L35.9246429,35.7672475 L31.0513393,40.630901 C30.4474107,41.3196238 29.3261607,41.3196238 28.6361607,40.6309901 Z M42.7816964,36.3268515 L36.2264286,42.8691386 C35.7089286,43.3856139 34.9325893,43.3856139 34.4150893,42.8691386 L34.0700893,42.5248218 C33.3800893,41.8361881 33.3800893,40.8031485 34.0700893,40.1145149 L37.1750893,37.0156634 L40.4959821,33.7595347 C40.7760714,33.5781089 41.0886607,33.4861485 41.4016964,33.4861485 C41.8329464,33.4861485 42.2641964,33.6583069 42.6955357,34.088703 L42.7817857,34.1747822 C43.3854464,34.7773366 43.3854464,35.724297 42.7816964,36.3268515 Z" id="Shape"></path>
            </g>
            <g id="dumbbell-gym-svgrepo-com-(1)" transform="translate(47.533181, 26.677607) rotate(-25.000000) translate(-47.533181, -26.677607) translate(20.533181, 10.677607)" fill="#1D0BC4">
                <path d="M48.1393754,5.2431203 C46.8003628,5.2431203 45.7414322,5.7498272 44.6514391,6.58083902 L44.6514391,5.2421833 C44.6514391,2.35186131 42.3046087,0 39.4195346,0 C36.5344604,0 34.18763,2.35186131 34.18763,5.2421833 L34.18763,11.4166782 L19.3641602,11.4166782 L19.3641602,5.2421833 C19.3641602,2.35186131 17.0173299,0 14.1322557,0 C11.2471815,0 8.90035117,2.35186131 8.90035117,5.2421833 L8.90035117,6.58073491 C8.02841903,5.74972309 6.75153138,5.24301619 5.41241482,5.24301619 C2.52744452,5.2431203 0.180614172,7.59237884 0.180614172,10.4793693 L0.180614172,20.9791443 C0.180614172,23.8660306 2.52744452,26.2153933 5.4125187,26.2153933 C6.75153138,26.2153933 8.02841903,25.7088946 8.90045506,24.8777787 L8.90045506,26.2171631 C8.90045506,29.1074851 11.2472854,31.4585136 14.1323596,31.4585136 C17.0174338,31.4585136 19.3642641,29.1074851 19.3642641,26.2171631 L19.3642641,20.1553161 L34.1878378,20.1553161 L34.1878378,26.2171631 C34.1878378,29.1074851 36.5346682,31.4585136 39.4197423,31.4585136 C42.3048165,31.4585136 44.6516469,29.1074851 44.6516469,26.2171631 L44.6516469,24.8777787 C45.74164,25.7089987 46.8004667,26.2153933 48.1395832,26.2153933 C51.0246574,26.2153933 53.3714878,23.8660306 53.3714878,20.9791443 L53.3714878,10.4793693 C53.3714878,7.59237884 51.0244496,5.2431203 48.1393754,5.2431203 Z M8.90035117,20.9791443 C8.90035117,22.9025899 7.33569371,24.4676865 5.41241482,24.4676865 C3.48923981,24.4676865 1.92447846,22.9025899 1.92447846,20.9791443 L1.92447846,10.4793693 C1.92447846,8.55592362 3.48913592,6.99082706 5.41241482,6.99082706 C7.33558983,6.99082706 8.90035117,8.55592362 8.90035117,10.4793693 L8.90035117,20.9791443 Z M17.6201921,12.2338433 L17.6201921,19.2246703 L17.6201921,26.2171631 C17.6201921,28.1432116 16.0555346,29.7108068 14.1322557,29.7108068 C12.2090807,29.7108068 10.6443193,28.1432116 10.6443193,26.2171631 L10.6443193,20.9792484 L10.6443193,10.4793693 L10.6443193,5.2421833 C10.6443193,3.31530197 12.2089768,1.74760266 14.1322557,1.74760266 C16.0554307,1.74760266 17.6201921,3.31519786 17.6201921,5.2421833 L17.6201921,12.2338433 L17.6201921,12.2338433 Z M34.1877339,18.4075052 L19.3641602,18.4075052 L19.3641602,13.1643849 L34.1877339,13.1643849 L34.1877339,18.4075052 Z M42.9075748,10.4793693 L42.9075748,20.9791443 L42.9075748,26.217059 C42.9075748,28.1431075 41.3429173,29.7107027 39.4196384,29.7107027 C37.4964634,29.7107027 35.9317021,28.1431075 35.9317021,26.217059 L35.9317021,19.2245662 L35.9317021,12.2337391 L35.9317021,5.2421833 C35.9317021,3.31530197 37.4963595,1.74760266 39.4196384,1.74760266 C41.3428135,1.74760266 42.9075748,3.31519786 42.9075748,5.2421833 L42.9075748,10.4793693 Z M51.6273118,20.9791443 C51.6273118,22.9025899 50.0626543,24.4676865 48.1393754,24.4676865 C46.2162004,24.4676865 44.6514391,22.9025899 44.6514391,20.9791443 L44.6514391,10.4793693 C44.6514391,8.55592362 46.2160965,6.99082706 48.1393754,6.99082706 C50.0625505,6.99082706 51.6273118,8.55592362 51.6273118,10.4793693 L51.6273118,20.9791443 Z" id="Shape"></path>
            </g>
            <g id="timer-svgrepo-com" transform="translate(486.000000, 279.000000)" fill="#1D0BC4">
                <path d="M48.2570137,16.6720408 L53.3147671,11.6222449 L47.9990959,6.36967347 L42.8612055,11.5004082 C40.3678356,9.6964898 37.5535479,8.30559184 34.5199315,7.43044898 L34.5199315,4.02097959 C34.5199315,1.80404082 32.7035342,0 30.4703014,0 L23.5284658,0 C21.2964658,0 19.4799452,1.80404082 19.4799452,4.02097959 L19.4799452,7.43020408 C8.24079452,10.6724082 0.0017260274,20.990449 0.0017260274,33.1847755 C0.0017260274,47.971102 12.1128904,60 26.9992603,60 C41.886863,60 53.9981507,47.971102 53.9981507,33.1847755 C53.9981507,26.961551 51.8522055,21.2271429 48.2570137,16.6720408 Z M51.4491781,34.4347347 C51.1537808,40.1987755 48.8272192,45.4389796 45.1689041,49.4630204 L43.092863,47.401102 L41.3130822,49.1686531 L43.3891233,51.2306939 C39.3375205,54.8642449 34.0613014,57.1749796 28.2579041,57.4682449 L28.2579041,54.5397551 L25.7407397,54.5397551 L25.7407397,57.4682449 C19.9374658,57.1749796 14.6617397,54.8642449 10.6105068,51.2309388 L12.6869178,49.1686531 L10.9072603,47.401102 L8.83084932,49.4633878 C5.17265753,45.4392245 2.84621918,40.198898 2.55082192,34.4347347 L5.49924658,34.4347347 L5.49924658,31.9348163 L2.55082192,31.9348163 C2.84609589,26.1707755 5.17253425,20.9306939 8.83060274,16.906898 L10.907137,18.968449 L12.6867945,17.2007755 L10.610137,15.1393469 C14.6614932,11.5062857 19.9372192,9.19579592 25.7406164,8.90240816 L25.7406164,11.8310204 L28.2577808,11.8310204 L28.2577808,8.90240816 C34.0613014,9.19591837 39.3375205,11.5064082 43.3891233,15.1397143 L41.3128356,17.200898 L43.0926164,18.9685714 L45.1689041,16.9072653 C48.8272192,20.9310612 51.1536575,26.170898 51.4491781,31.9349388 L48.5005068,31.9349388 L48.5005068,34.4348571 L51.4491781,34.4348571 L51.4491781,34.4347347 Z M48.0089589,9.90477551 L49.7554521,11.6320408 L46.6087808,14.7732245 C46.0441233,14.1803265 45.4520959,13.6135102 44.8355342,13.0735102 L48.0089589,9.90477551 Z M21.9971096,4.02097959 C21.9971096,3.18232653 22.6841918,2.50004082 23.5284658,2.50004082 L30.4703014,2.50004082 C31.3158082,2.50004082 32.0028904,3.18244898 32.0028904,4.02097959 L32.0028904,6.8342449 C30.3807945,6.53118367 28.7087671,6.37077551 26.9993836,6.37077551 C25.2904932,6.37077551 23.6187123,6.53118367 21.9971096,6.83412245 L21.9971096,4.02097959 L21.9971096,4.02097959 Z" id="Shape"></path>
                <polygon id="Path" points="37.6024932 13.2787347 39.7583014 14.5677551 28.077411 33.8292245 25.9216027 32.5402041"></polygon>
            </g>
            <g id="timer-svgrepo-com" transform="translate(351.085470, 4.000000)" fill="#1D0BC4">
                <path d="M40.2141781,14.1712347 L44.4289726,9.87890816 L39.9992466,5.41422245 L35.7176712,9.77534694 C33.639863,8.24201633 31.2946233,7.05975306 28.7666096,6.31588163 L28.7666096,3.41783265 C28.7666096,1.53343469 27.2529452,0 25.3919178,0 L19.6070548,0 C17.7470548,0 16.2332877,1.53343469 16.2332877,3.41783265 L16.2332877,6.31567347 C6.86732877,9.07154694 0.00143835616,17.8418816 0.00143835616,28.2070592 C0.00143835616,40.7754367 10.0940753,51 22.4993836,51 C34.9057192,51 44.9984589,40.7754367 44.9984589,28.2070592 C44.9984589,22.9173184 43.2101712,18.0430714 40.2141781,14.1712347 Z M42.8743151,29.2695245 C42.6281507,34.1689592 40.6893493,38.6231327 37.6407534,42.0435673 L35.9107192,40.2909367 L34.4275685,41.7933551 L36.1576027,43.5460898 C32.7812671,46.6346082 28.3844178,48.5987327 23.5482534,48.8480082 L23.5482534,46.3587918 L21.4506164,46.3587918 L21.4506164,48.8480082 C16.6145548,48.5987327 12.2181164,46.6346082 8.84208904,43.546298 L10.5724315,41.7933551 L9.08938356,40.2909367 L7.3590411,42.0438796 C4.31054795,38.6233408 2.37184932,34.1690633 2.12568493,29.2695245 L4.58270548,29.2695245 L4.58270548,27.1445939 L2.12568493,27.1445939 C2.37174658,22.2451592 4.31044521,17.7910898 7.35883562,14.3708633 L9.08928082,16.1231816 L10.5723288,14.6206592 L8.84178082,12.8684449 C12.217911,9.78034286 16.6143493,7.81642653 21.4505137,7.56704694 L21.4505137,10.0563673 L23.5481507,10.0563673 L23.5481507,7.56704694 C28.3844178,7.81653061 32.7812671,9.78044694 36.1576027,12.8687571 L34.427363,14.6207633 L35.9105137,16.1232857 L37.6407534,14.3711755 C40.6893493,17.791402 42.6280479,22.2452633 42.8743151,27.144698 L40.417089,27.144698 L40.417089,29.2696286 L42.8743151,29.2696286 L42.8743151,29.2695245 Z M40.0074658,8.41905918 L41.4628767,9.88723469 L38.8406507,12.5572408 C38.3701027,12.0532776 37.8767466,11.5714837 37.3629452,11.1124837 L40.0074658,8.41905918 Z M18.3309247,3.41783265 C18.3309247,2.70497755 18.9034932,2.12503469 19.6070548,2.12503469 L25.3919178,2.12503469 C26.0965068,2.12503469 26.6690753,2.70508163 26.6690753,3.41783265 L26.6690753,5.80910816 C25.3173288,5.55150612 23.9239726,5.41515918 22.4994863,5.41515918 C21.075411,5.41515918 19.6822603,5.55150612 18.3309247,5.80900408 L18.3309247,3.41783265 L18.3309247,3.41783265 Z" id="Shape"></path>
                <polygon id="Path" points="31.335411 11.2869245 33.1319178 12.3825918 23.3978425 28.7548408 21.6013356 27.6591735"></polygon>
            </g>
        </g>
    </g>
</svg>