<?xml version="1.0" encoding="UTF-8"?>
<svg width="25px" height="25px" viewBox="0 0 25 25" version="1.1" xmlns="http://www.w3.org/2000/svg" xmlns:xlink="http://www.w3.org/1999/xlink">
    <!-- Generator: Sketch 63.1 (92452) - https://sketch.com -->
    <title>iconmonstr-linkedin-2</title>
    <desc>Created with Sketch.</desc>
    <g id="Page-1" stroke="none" stroke-width="1" fill="none" fill-rule="evenodd">
        <g id="iconmonstr-linkedin-2" fill="#004744" fill-rule="nonzero">
            <path d="M0,0 L0,25 L25,25 L25,0 L0,0 Z M8.33333333,19.7916667 L5.20833333,19.7916667 L5.20833333,8.33333333 L8.33333333,8.33333333 L8.33333333,19.7916667 Z M6.77083333,7.0125 C5.76458333,7.0125 4.94791667,6.18958333 4.94791667,5.175 C4.94791667,4.16041667 5.76458333,3.3375 6.77083333,3.3375 C7.77708333,3.3375 8.59375,4.16041667 8.59375,5.175 C8.59375,6.18958333 7.778125,7.0125 6.77083333,7.0125 Z M20.8333333,19.7916667 L17.7083333,19.7916667 L17.7083333,13.9541667 C17.7083333,10.4458333 13.5416667,10.7114583 13.5416667,13.9541667 L13.5416667,19.7916667 L10.4166667,19.7916667 L10.4166667,8.33333333 L13.5416667,8.33333333 L13.5416667,10.171875 C14.996875,7.478125 20.8333333,7.27916667 20.8333333,12.7510417 L20.8333333,19.7916667 Z" id="Shape"></path>
        </g>
    </g>
</svg>