<?xml version="1.0" encoding="UTF-8"?>
<svg width="62px" height="63px" viewBox="0 0 62 63" version="1.1" xmlns="http://www.w3.org/2000/svg" xmlns:xlink="http://www.w3.org/1999/xlink">
    <!-- Generator: Sketch 63.1 (92452) - https://sketch.com -->
    <title>Group</title>
    <desc>Created with Sketch.</desc>
    <g id="Page-1" stroke="none" stroke-width="1" fill="none" fill-rule="evenodd">
        <g id="Group" transform="translate(1.000000, 1.000000)" fill-rule="nonzero" stroke="#004744">
            <g id="interface-(1)">
                <path d="M48.1756452,8.62983871 L11.7179032,8.62983871 C9.96370968,8.62983871 8.53645161,10.056129 8.53645161,11.8093548 L8.53645161,49.0519355 C8.53645161,50.8064516 9.96274194,52.2337097 11.7179032,52.2337097 L48.1758065,52.2337097 C49.9295161,52.2337097 51.3567742,50.8074194 51.3567742,49.0519355 L51.3567742,11.8093548 C51.3558065,10.056129 49.9293548,8.62983871 48.1756452,8.62983871 Z M54.1414516,0 L5.75193548,0 C2.59580645,0 0.0364516129,2.55951613 0.0364516129,5.71516129 L0.0364516129,55.1445161 C0.0364516129,58.3027419 2.59596774,60.8617742 5.75209677,60.8617742 L54.1424194,60.8617742 C57.2985484,60.8617742 59.8579032,58.3027419 59.8579032,55.1445161 L59.8579032,5.71516129 C59.8579032,2.55951613 57.2983871,0 54.1414516,0 Z M53.6098387,49.0519355 C53.6098387,52.0474194 51.1722581,54.4859677 48.1758065,54.4859677 L11.7179032,54.4859677 C8.72177419,54.4859677 6.28322581,52.0482258 6.28322581,49.0519355 L6.28322581,11.8093548 C6.28322581,8.81435484 8.72096774,6.37580645 11.7179032,6.37580645 L48.1758065,6.37580645 C51.1712903,6.37580645 53.6098387,8.81354839 53.6098387,11.8093548 L53.6098387,49.0519355 Z" id="Shape"></path>
            </g>
            <polygon id="Path" fill="#004744" points="25.9882258 27.5646774 25.9882258 36.6393548 19.7912903 36.6393548 19.7912903 27.5329032 12.4535484 12.0153226 18.7372581 12.0153226 22.9098387 21.185 27.0212903 12.0153226 33.516129 12.0153226"></polygon>
        </g>
    </g>
</svg>