<?xml version="1.0" encoding="UTF-8"?>
<svg width="434px" height="322px" viewBox="0 0 434 322" version="1.1" xmlns="http://www.w3.org/2000/svg" xmlns:xlink="http://www.w3.org/1999/xlink">
    <!-- Generator: Sketch 63.1 (92452) - https://sketch.com -->
    <title>Group 3</title>
    <desc>Created with Sketch.</desc>
    <g id="Page-1" stroke="none" stroke-width="1" fill="none" fill-rule="evenodd" opacity="0.396391369">
        <g id="Group-3" transform="translate(-5.000000, -5.000000)" fill-rule="nonzero">
            <g id="Group-2" opacity="0.397786458" transform="translate(1.000000, 0.000000)">
                <path d="M207.602164,301.875919 C206.356868,301.875919 205.372051,302.347139 204.358346,303.119951 L204.358346,301.875047 C204.358346,299.187149 202.175768,297 199.492618,297 C196.809468,297 194.626891,299.187149 194.626891,301.875047 L194.626891,307.617112 L180.840904,307.617112 L180.840904,301.875047 C180.840904,299.187149 178.658327,297 175.975177,297 C173.292027,297 171.109449,299.187149 171.109449,301.875047 L171.109449,303.119854 C170.298543,302.347042 169.111024,301.875822 167.865631,301.875822 C165.182577,301.875919 163,304.060647 163,306.745448 L163,316.509872 C163,319.194575 165.182577,321.3794 167.865728,321.3794 C169.111024,321.3794 170.298543,320.908374 171.109546,320.135465 L171.109546,321.381046 C171.109546,324.068945 173.292123,326.255319 175.975273,326.255319 C178.658424,326.255319 180.841001,324.068945 180.841001,321.381046 L180.841001,315.74374 L194.627084,315.74374 L194.627084,321.381046 C194.627084,324.068945 196.809662,326.255319 199.492812,326.255319 C202.175962,326.255319 204.358539,324.068945 204.358539,321.381046 L204.358539,320.135465 C205.372245,320.908471 206.356965,321.3794 207.602358,321.3794 C210.285508,321.3794 212.468085,319.194575 212.468085,316.509872 L212.468085,306.745448 C212.468085,304.060647 210.285314,301.875919 207.602164,301.875919 Z M171.109449,316.509872 C171.109449,318.298609 169.654301,319.754094 167.865631,319.754094 C166.077057,319.754094 164.621813,318.298609 164.621813,316.509872 L164.621813,306.745448 C164.621813,304.95671 166.076961,303.501225 167.865631,303.501225 C169.654204,303.501225 171.109449,304.95671 171.109449,306.745448 L171.109449,316.509872 Z M179.218995,308.377047 L179.218995,314.878272 L179.218995,321.381046 C179.218995,323.172204 177.763847,324.630013 175.975177,324.630013 C174.186603,324.630013 172.731358,323.172204 172.731358,321.381046 L172.731358,316.509968 L172.731358,306.745448 L172.731358,301.875047 C172.731358,300.083115 174.186507,298.625209 175.975177,298.625209 C177.76375,298.625209 179.218995,300.083018 179.218995,301.875047 L179.218995,308.377047 L179.218995,308.377047 Z M194.626987,314.118337 L180.840904,314.118337 L180.840904,309.242418 L194.626987,309.242418 L194.626987,314.118337 Z M202.736533,306.745448 L202.736533,316.509872 L202.736533,321.380949 C202.736533,323.172107 201.281385,324.629916 199.492715,324.629916 C197.704142,324.629916 196.248897,323.172107 196.248897,321.380949 L196.248897,314.878175 L196.248897,308.37695 L196.248897,301.875047 C196.248897,300.083115 197.704045,298.625209 199.492715,298.625209 C201.281289,298.625209 202.736533,300.083018 202.736533,301.875047 L202.736533,306.745448 Z M210.845983,316.509872 C210.845983,318.298609 209.390834,319.754094 207.602164,319.754094 C205.813591,319.754094 204.358346,318.298609 204.358346,316.509872 L204.358346,306.745448 C204.358346,304.95671 205.813494,303.501225 207.602164,303.501225 C209.390738,303.501225 210.845983,304.95671 210.845983,306.745448 L210.845983,316.509872 Z" id="Shape" fill="#1D0BC4" opacity="0.436337426"></path>
                <g id="dumbbell-gym-svgrepo-com-(1)" opacity="0.44375465" transform="translate(29.000000, 25.000000) rotate(25.000000) translate(-29.000000, -25.000000) translate(4.000000, 10.000000)" fill="#1D0BC4">
                    <path d="M44.7701375,4.8759188 C43.5248412,4.8759188 42.5400244,5.34713853 41.5263191,6.1199505 L41.5263191,4.87504742 C41.5263191,2.1871489 39.3437416,0 36.6605915,0 C33.9774415,0 31.794864,2.1871489 31.794864,4.87504742 L31.794864,10.617112 L18.0088775,10.617112 L18.0088775,4.87504742 C18.0088775,2.1871489 15.8263,0 13.14315,0 C10.4599999,0 8.27742241,2.1871489 8.27742241,4.87504742 L8.27742241,6.11985368 C7.46651613,5.34704171 6.27899688,4.87582198 5.03360405,4.87582198 C2.35055062,4.8759188 0.167973124,7.06064721 0.167973124,9.74544752 L0.167973124,19.5098716 C0.167973124,22.1945751 2.35055062,24.3794004 5.03370067,24.3794004 C6.27899688,24.3794004 7.46651613,23.9083743 8.27751903,23.1354655 L8.27751903,24.3810463 C8.27751903,27.0689448 10.4600965,29.2553191 13.1432466,29.2553191 C15.8263966,29.2553191 18.0089741,27.0689448 18.0089741,24.3810463 L18.0089741,18.7437402 L31.7950572,18.7437402 L31.7950572,24.3810463 C31.7950572,27.0689448 33.9776347,29.2553191 36.6607848,29.2553191 C39.3439348,29.2553191 41.5265123,27.0689448 41.5265123,24.3810463 L41.5265123,23.1354655 C42.5402176,23.9084711 43.5249379,24.3794004 44.7703307,24.3794004 C47.4534807,24.3794004 49.6360582,22.1945751 49.6360582,19.5098716 L49.6360582,9.74544752 C49.6360582,7.06064721 47.4532875,4.8759188 44.7701375,4.8759188 Z M8.27742241,19.5098716 C8.27742241,21.2986089 6.82227413,22.7540941 5.03360405,22.7540941 C3.24503059,22.7540941 1.78978569,21.2986089 1.78978569,19.5098716 L1.78978569,9.74544752 C1.78978569,7.95671021 3.24493397,6.50122506 5.03360405,6.50122506 C6.82217752,6.50122506 8.27742241,7.95671021 8.27742241,9.74544752 L8.27742241,19.5098716 Z M16.3869683,11.377047 L16.3869683,17.8782721 L16.3869683,24.3810463 C16.3869683,26.1722041 14.93182,27.6300129 13.14315,27.6300129 C11.3545765,27.6300129 9.8993316,26.1722041 9.8993316,24.3810463 L9.8993316,19.5099684 L9.8993316,9.74544752 L9.8993316,4.87504742 C9.8993316,3.08311507 11.3544799,1.62520945 13.14315,1.62520945 C14.9317234,1.62520945 16.3869683,3.08301825 16.3869683,4.87504742 L16.3869683,11.377047 L16.3869683,11.377047 Z M31.7949606,17.1183371 L18.0088775,17.1183371 L18.0088775,12.2424183 L31.7949606,12.2424183 L31.7949606,17.1183371 Z M39.9045065,9.74544752 L39.9045065,19.5098716 L39.9045065,24.3809495 C39.9045065,26.1721073 38.4493582,27.6299161 36.6606882,27.6299161 C34.8721147,27.6299161 33.4168698,26.1721073 33.4168698,24.3809495 L33.4168698,17.8781753 L33.4168698,11.3769502 L33.4168698,4.87504742 C33.4168698,3.08311507 34.8720181,1.62520945 36.6606882,1.62520945 C38.4492616,1.62520945 39.9045065,3.08301825 39.9045065,4.87504742 L39.9045065,9.74544752 Z M48.0139558,19.5098716 C48.0139558,21.2986089 46.5588075,22.7540941 44.7701375,22.7540941 C42.981564,22.7540941 41.5263191,21.2986089 41.5263191,19.5098716 L41.5263191,9.74544752 C41.5263191,7.95671021 42.9814674,6.50122506 44.7701375,6.50122506 C46.5587109,6.50122506 48.0139558,7.95671021 48.0139558,9.74544752 L48.0139558,19.5098716 Z" id="Shape"></path>
                </g>
                <g id="gym-svgrepo-com" opacity="0.62125651" transform="translate(408.000000, 78.000000)">
                    <path d="M27.894082,3.2210319 C25.8440625,1.09084205 23.694082,0.000928870293 21.3440625,0.000928870293 C18.744082,0.000928870293 16.344082,1.58622019 14.944043,4.21178818 C13.594043,1.58616213 11.194043,0.000928870293 8.5940625,0.000928870293 C6.29408203,0.000928870293 4.14404297,1.0412636 2.04404297,3.2210319 C-0.305976562,5.6980387 -1.35597656,11.3950905 2.94404297,15.6555282 C4.9940625,17.6866773 14.5440234,27.4459691 14.644043,27.545068 C14.7440625,27.6441668 14.8440234,27.6936872 14.9940234,27.6936872 C15.094043,27.6936872 15.244043,27.6441668 15.3440039,27.545068 C15.4439648,27.4459691 24.9440039,17.6866773 26.9940234,15.6555282 C29.4440039,13.1785214 29.944043,10.5529535 29.944043,8.76952249 C29.944043,6.63927458 29.1440625,4.55860513 27.894082,3.2210319 Z M26.2940625,14.9619524 C24.4940625,16.7453834 16.744043,24.6717238 14.994082,26.5047333 C13.2440625,24.7213023 5.49410156,16.7453834 3.69410156,14.9619524 C-0.155917969,11.1473724 0.694101562,6.09431799 2.79410156,3.91460774 C4.64408203,1.93303713 6.54410156,0.991743201 8.59412109,0.991743201 C11.0941406,0.991743201 13.3441406,2.77517416 14.4941016,5.59893985 C14.544082,5.7475591 14.7441211,5.89617835 14.9441016,5.89617835 C15.144082,5.89617835 15.3441211,5.7970795 15.3941016,5.59893985 C16.5441211,2.77517416 18.7941211,0.991743201 21.3441211,0.991743201 C23.3941406,0.991743201 25.3441406,1.98255753 27.1941211,3.91460774 C29.244082,6.09431799 30.094043,11.1968928 26.2940625,14.9619524 Z" id="Shape" fill="#1D09C0"></path>
                    <path d="M22.194082,8.86856328 C21.8936133,8.86856328 21.6083203,8.94803975 21.358418,9.08620921 C21.1282031,8.39321391 20.4600586,7.87774895 19.6940625,7.87774895 C18.744082,7.87774895 17.944043,8.67036559 17.944043,9.61165952 L17.944043,10.4042762 L11.944043,10.4042762 L11.944043,9.61165952 C11.944043,8.67042364 11.1440625,7.87774895 10.1940234,7.87774895 C9.42802734,7.87774895 8.75988281,8.39315586 8.52966797,9.08620921 C8.27976563,8.94803975 7.99447266,8.86856328 7.69400391,8.86856328 C6.74402344,8.86856328 5.94398437,9.66117992 5.94398437,10.6024738 L5.94398437,13.0794806 C5.94398437,14.0207165 6.74396484,14.8133912 7.69400391,14.8133912 C7.99564453,14.8133912 8.28205078,14.7382688 8.53259766,14.6042793 C8.76544922,15.2929786 9.43119141,15.8042055 10.1939648,15.8042055 C11.1439453,15.8042055 11.9439844,15.0611093 11.9439844,14.070295 L11.9439844,13.3767191 L17.9439844,13.3767191 L17.9439844,14.070295 C17.9439844,15.0115309 18.7439648,15.8042055 19.6940039,15.8042055 C20.4656836,15.8042055 21.1383398,15.3139362 21.3636914,14.5988802 C21.6122461,14.73525 21.8957227,14.8134493 22.1939648,14.8134493 C23.1439453,14.8134493 23.9439844,14.070353 23.9439844,13.0795387 L23.9439844,10.6025319 C23.9439844,9.66117992 23.1440625,8.86856328 22.194082,8.86856328 Z M7.6940625,13.8225188 C7.29404297,13.8225188 6.9440625,13.4757599 6.9440625,13.0794226 L6.9440625,10.6024158 C6.9440625,10.2060785 7.29404297,9.85931956 7.6940625,9.85931956 C8.09408203,9.85931956 8.4440625,10.2060785 8.4440625,10.6024158 L8.4440625,13.0794226 C8.4440625,13.4757599 8.09408203,13.8225188 7.6940625,13.8225188 Z M10.944082,14.0702369 C10.944082,14.4665743 10.5941016,14.8133332 10.194082,14.8133332 C9.7940625,14.8133332 9.44408203,14.4665743 9.44408203,14.0702369 L9.44408203,13.0794226 L9.44408203,10.6024158 L9.44408203,9.61160146 C9.44408203,9.21526412 9.7940625,8.86850523 10.194082,8.86850523 C10.5941016,8.86850523 10.944082,9.21526412 10.944082,9.61160146 L10.944082,10.8996543 L10.944082,12.8812249 L10.944082,14.0702369 Z M11.944043,12.3858468 L11.944043,11.3950324 L17.944043,11.3950324 L17.944043,12.3858468 L11.944043,12.3858468 Z M20.4440625,14.0702369 C20.4440625,14.4665743 20.094082,14.8133332 19.6940625,14.8133332 C19.294043,14.8133332 18.9440625,14.4665743 18.9440625,14.0702369 L18.9440625,12.8812829 L18.9440625,10.8997123 L18.9440625,9.61165952 C18.9440625,9.21532218 19.294043,8.86856328 19.6940625,8.86856328 C20.094082,8.86856328 20.4440625,9.21532218 20.4440625,9.61165952 L20.4440625,10.6024738 L20.4440625,13.0794806 L20.4440625,14.0702369 Z M22.944082,13.0794226 C22.944082,13.4757599 22.5941016,13.8225188 22.194082,13.8225188 C21.7940625,13.8225188 21.444082,13.4757599 21.444082,13.0794226 L21.444082,10.6024158 C21.444082,10.2060785 21.7940625,9.85931956 22.194082,9.85931956 C22.5941016,9.85931956 22.944082,10.2060785 22.944082,10.6024158 L22.944082,13.0794226 Z" id="Shape" fill="#1D0BC4"></path>
                </g>
                <g id="gym-svgrepo-com" opacity="0.513392857" transform="translate(393.000000, 34.875000) rotate(45.000000) translate(-393.000000, -34.875000) translate(378.000000, 21.000000)">
                    <path d="M27.894082,3.2210319 C25.8440625,1.09084205 23.694082,0.000928870293 21.3440625,0.000928870293 C18.744082,0.000928870293 16.344082,1.58622019 14.944043,4.21178818 C13.594043,1.58616213 11.194043,0.000928870293 8.5940625,0.000928870293 C6.29408203,0.000928870293 4.14404297,1.0412636 2.04404297,3.2210319 C-0.305976562,5.6980387 -1.35597656,11.3950905 2.94404297,15.6555282 C4.9940625,17.6866773 14.5440234,27.4459691 14.644043,27.545068 C14.7440625,27.6441668 14.8440234,27.6936872 14.9940234,27.6936872 C15.094043,27.6936872 15.244043,27.6441668 15.3440039,27.545068 C15.4439648,27.4459691 24.9440039,17.6866773 26.9940234,15.6555282 C29.4440039,13.1785214 29.944043,10.5529535 29.944043,8.76952249 C29.944043,6.63927458 29.1440625,4.55860513 27.894082,3.2210319 Z M26.2940625,14.9619524 C24.4940625,16.7453834 16.744043,24.6717238 14.994082,26.5047333 C13.2440625,24.7213023 5.49410156,16.7453834 3.69410156,14.9619524 C-0.155917969,11.1473724 0.694101562,6.09431799 2.79410156,3.91460774 C4.64408203,1.93303713 6.54410156,0.991743201 8.59412109,0.991743201 C11.0941406,0.991743201 13.3441406,2.77517416 14.4941016,5.59893985 C14.544082,5.7475591 14.7441211,5.89617835 14.9441016,5.89617835 C15.144082,5.89617835 15.3441211,5.7970795 15.3941016,5.59893985 C16.5441211,2.77517416 18.7941211,0.991743201 21.3441211,0.991743201 C23.3941406,0.991743201 25.3441406,1.98255753 27.1941211,3.91460774 C29.244082,6.09431799 30.094043,11.1968928 26.2940625,14.9619524 Z" id="Shape" fill="#1D09C0"></path>
                    <path d="M22.194082,8.86856328 C21.8936133,8.86856328 21.6083203,8.94803975 21.358418,9.08620921 C21.1282031,8.39321391 20.4600586,7.87774895 19.6940625,7.87774895 C18.744082,7.87774895 17.944043,8.67036559 17.944043,9.61165952 L17.944043,10.4042762 L11.944043,10.4042762 L11.944043,9.61165952 C11.944043,8.67042364 11.1440625,7.87774895 10.1940234,7.87774895 C9.42802734,7.87774895 8.75988281,8.39315586 8.52966797,9.08620921 C8.27976563,8.94803975 7.99447266,8.86856328 7.69400391,8.86856328 C6.74402344,8.86856328 5.94398437,9.66117992 5.94398437,10.6024738 L5.94398437,13.0794806 C5.94398437,14.0207165 6.74396484,14.8133912 7.69400391,14.8133912 C7.99564453,14.8133912 8.28205078,14.7382688 8.53259766,14.6042793 C8.76544922,15.2929786 9.43119141,15.8042055 10.1939648,15.8042055 C11.1439453,15.8042055 11.9439844,15.0611093 11.9439844,14.070295 L11.9439844,13.3767191 L17.9439844,13.3767191 L17.9439844,14.070295 C17.9439844,15.0115309 18.7439648,15.8042055 19.6940039,15.8042055 C20.4656836,15.8042055 21.1383398,15.3139362 21.3636914,14.5988802 C21.6122461,14.73525 21.8957227,14.8134493 22.1939648,14.8134493 C23.1439453,14.8134493 23.9439844,14.070353 23.9439844,13.0795387 L23.9439844,10.6025319 C23.9439844,9.66117992 23.1440625,8.86856328 22.194082,8.86856328 Z M7.6940625,13.8225188 C7.29404297,13.8225188 6.9440625,13.4757599 6.9440625,13.0794226 L6.9440625,10.6024158 C6.9440625,10.2060785 7.29404297,9.85931956 7.6940625,9.85931956 C8.09408203,9.85931956 8.4440625,10.2060785 8.4440625,10.6024158 L8.4440625,13.0794226 C8.4440625,13.4757599 8.09408203,13.8225188 7.6940625,13.8225188 Z M10.944082,14.0702369 C10.944082,14.4665743 10.5941016,14.8133332 10.194082,14.8133332 C9.7940625,14.8133332 9.44408203,14.4665743 9.44408203,14.0702369 L9.44408203,13.0794226 L9.44408203,10.6024158 L9.44408203,9.61160146 C9.44408203,9.21526412 9.7940625,8.86850523 10.194082,8.86850523 C10.5941016,8.86850523 10.944082,9.21526412 10.944082,9.61160146 L10.944082,10.8996543 L10.944082,12.8812249 L10.944082,14.0702369 Z M11.944043,12.3858468 L11.944043,11.3950324 L17.944043,11.3950324 L17.944043,12.3858468 L11.944043,12.3858468 Z M20.4440625,14.0702369 C20.4440625,14.4665743 20.094082,14.8133332 19.6940625,14.8133332 C19.294043,14.8133332 18.9440625,14.4665743 18.9440625,14.0702369 L18.9440625,12.8812829 L18.9440625,10.8997123 L18.9440625,9.61165952 C18.9440625,9.21532218 19.294043,8.86856328 19.6940625,8.86856328 C20.094082,8.86856328 20.4440625,9.21532218 20.4440625,9.61165952 L20.4440625,10.6024738 L20.4440625,13.0794806 L20.4440625,14.0702369 Z M22.944082,13.0794226 C22.944082,13.4757599 22.5941016,13.8225188 22.194082,13.8225188 C21.7940625,13.8225188 21.444082,13.4757599 21.444082,13.0794226 L21.444082,10.6024158 C21.444082,10.2060785 21.7940625,9.85931956 22.194082,9.85931956 C22.5941016,9.85931956 22.944082,10.2060785 22.944082,10.6024158 L22.944082,13.0794226 Z" id="Shape" fill="#1D0BC4"></path>
                </g>
                <g id="timer-svgrepo-com" opacity="0.648809524" transform="translate(5.000000, 237.000000)" fill="#1D0BC4">
                    <path d="M26.8094521,9.4474898 L29.6193151,6.58593878 L26.6661644,3.60948163 L23.8117808,6.51689796 C22.4265753,5.49467755 20.8630822,4.70650204 19.1777397,4.21058776 L19.1777397,2.2785551 C19.1777397,1.0222898 18.1686301,0 16.9279452,0 L13.0713699,0 C11.8313699,0 10.8221918,1.0222898 10.8221918,2.2785551 L10.8221918,4.21044898 C4.57821918,6.04769796 0.00095890411,11.8945878 0.00095890411,18.8047061 C0.00095890411,27.1836245 6.72938356,34 14.999589,34 C23.2704795,34 29.9989726,27.1836245 29.9989726,18.8047061 C29.9989726,15.2782122 28.8067808,12.0287143 26.8094521,9.4474898 Z M28.5828767,19.5130163 C28.4187671,22.7793061 27.1262329,25.7487551 25.0938356,28.0290449 L23.9404795,26.8606245 L22.9517123,27.8622367 L24.1050685,29.0307265 C21.8541781,31.0897388 18.9229452,32.3991551 15.6988356,32.5653388 L15.6988356,30.9058612 L14.300411,30.9058612 L14.300411,32.5653388 C11.0763699,32.3991551 8.14541096,31.0897388 5.89472603,29.0308653 L7.04828767,27.8622367 L6.05958904,26.8606245 L4.9060274,28.0292531 C2.87369863,25.7488939 1.58123288,22.7793755 1.41712329,19.5130163 L3.05513699,19.5130163 L3.05513699,18.0963959 L1.41712329,18.0963959 C1.58116438,14.8301061 2.87363014,11.8607265 4.90589041,9.58057551 L6.05952055,10.7487878 L7.04821918,9.74710612 L5.89452055,8.57896327 C8.14527397,6.52022857 11.0762329,5.21095102 14.3003425,5.04469796 L14.3003425,6.7042449 L15.6987671,6.7042449 L15.6987671,5.04469796 C18.9229452,5.21102041 21.8541781,6.52029796 24.1050685,8.57917143 L22.9515753,9.74717551 L23.9403425,10.7488571 L25.0938356,9.58078367 C27.1262329,11.8609347 28.4186986,14.8301755 28.5828767,18.0964653 L26.944726,18.0964653 L26.944726,19.5130857 L28.5828767,19.5130857 L28.5828767,19.5130163 Z M26.6716438,5.61270612 L27.6419178,6.5914898 L25.8937671,8.37149388 C25.5800685,8.03551837 25.2511644,7.71432245 24.9086301,7.40832245 L26.6716438,5.61270612 Z M12.2206164,2.2785551 C12.2206164,1.80331837 12.6023288,1.4166898 13.0713699,1.4166898 L16.9279452,1.4166898 C17.3976712,1.4166898 17.7793836,1.80338776 17.7793836,2.2785551 L17.7793836,3.87273878 C16.8782192,3.70100408 15.9493151,3.61010612 14.9996575,3.61010612 C14.050274,3.61010612 13.1215068,3.70100408 12.2206164,3.87266939 L12.2206164,2.2785551 L12.2206164,2.2785551 Z" id="Shape"></path>
                    <polygon id="Path" points="20.890274 7.52461633 22.0879452 8.25506122 15.5985616 19.1698939 14.4008904 18.439449"></polygon>
                </g>
                <g id="dumbbell-gym-svgrepo-com" opacity="0.378999256" transform="translate(363.000000, 267.000000)" fill="#1D0BC4">
                    <path d="M29.268631,21.8075644 C28.9791667,21.5186733 28.6384524,21.3208515 28.27875,21.2137426 C28.97375,20.3003762 28.9014881,19.0308713 28.0610714,18.1921188 C27.1410119,17.2738812 25.7034524,17.2738812 24.7834524,18.1921188 L23.9783929,18.9955842 L19.9244643,14.9496832 L23.9748214,10.9073465 L24.7833929,11.7072475 C25.1858929,12.1663366 25.7609524,12.3958812 26.3934524,12.3958812 C27.0259524,12.3958812 27.5435119,12.0515644 28.0035119,11.649802 C28.4635119,11.248099 28.6935119,10.6167921 28.6935119,10.0429307 C28.6935119,9.55788119 28.5285119,9.07306931 28.1998214,8.65728713 C28.5817857,8.57091089 28.94625,8.39370297 29.2110119,8.09174257 L29.3260119,7.9769703 C30.1885714,7.11611881 30.1885714,5.73885149 29.3260119,4.878 L25.1858333,0.746019802 C24.2657738,-0.172217822 22.8282143,-0.172217822 21.9082143,0.746019802 C21.608869,1.04477228 21.407619,1.39829703 21.3030357,1.77083168 C20.3848214,1.03811881 19.0830952,1.09788119 18.2280952,1.95118812 C17.3080357,2.86942574 17.3080357,4.30413861 18.2280952,5.22231683 L19.0655357,6.05079208 L15.0367262,10.0716238 L10.928869,5.97190099 L11.7303571,5.16493069 C12.1903571,4.76322772 12.4203571,4.18930693 12.4203571,3.55805941 C12.4203571,2.92681188 12.1903571,2.35289109 11.7303571,1.95118812 C11.3278571,1.49209901 10.7527976,1.26255446 10.1202976,1.26255446 C9.6502381,1.26255446 9.1802381,1.41617822 8.77303571,1.7229505 C8.66928571,1.3469703 8.46708333,0.989940594 8.1652381,0.688693069 C7.24517857,-0.229544554 5.80761905,-0.229544554 4.88761905,0.688693069 L0.805059524,4.76322772 C-0.115,5.68146535 -0.115,7.11617822 0.805059524,8.03435644 C1.09755952,8.32627723 1.43660714,8.5249901 1.7925,8.63126733 C1.10005952,9.54439604 1.17315476,10.812 2.01261905,11.649802 C2.47261905,12.1088911 3.04767857,12.3384356 3.62267857,12.3384356 C4.19767857,12.3384356 4.7727381,12.1088911 5.2327381,11.7071881 L6.06285714,10.8714059 L10.1491667,14.9496238 L6.0377381,19.0529109 L5.23267857,18.249505 C4.83017857,17.7904158 4.19761905,17.5608713 3.62261905,17.5608713 C3.04761905,17.5608713 2.47255952,17.7904158 2.01255952,18.249505 C1.55255952,18.6512079 1.32255952,19.2251287 1.32255952,19.8563762 C1.32255952,20.3438614 1.48916667,20.8310495 1.82107143,21.2481386 C1.43065476,21.3484158 1.05934524,21.5537822 0.747559524,21.8649505 L0.690059524,21.9223366 C-0.1725,22.7831881 -0.1725,24.217901 0.690059524,25.0786931 L4.9452381,29.3254455 C5.3477381,29.7271485 5.92279762,29.9566931 6.44029762,29.9566931 C7.01529762,29.9566931 7.53285714,29.7271485 7.93535714,29.3254455 L8.10785714,29.2106733 C8.41964286,28.899505 8.62541667,28.5288713 8.72589286,28.1392871 C9.14386905,28.4705347 9.63202381,28.6368119 10.1204167,28.6368119 C10.6954167,28.6368119 11.3279762,28.4072673 11.7304762,28.0055644 C12.6505357,27.0873267 12.6505357,25.6526139 11.7304762,24.7344356 L10.9254167,23.9309703 L15.0368452,19.8276832 L19.0907738,23.8735842 L18.2857143,24.6769901 C17.8257143,25.0786931 17.5957143,25.6526139 17.5957143,26.2838614 C17.5957143,26.8577228 17.8832143,27.4316436 18.2857143,27.8907327 C18.6882143,28.3498218 19.2632738,28.5793663 19.8957738,28.5793663 C20.3780357,28.5793663 20.9001786,28.4172475 21.29375,28.0943168 C21.3953571,28.4793861 21.599881,28.8453861 21.9083333,29.1532277 L22.1383333,29.3827723 C22.4833333,29.7844752 23.0008929,29.9566931 23.5183929,29.9566931 C24.0358929,29.9566931 24.5534524,29.7270891 24.9559524,29.3253861 L29.326131,24.9638614 C30.1886905,24.1030099 30.1886905,22.7257426 29.326131,21.8648911 L29.268631,21.8075644 Z M22.7133929,1.60687129 C22.9433929,1.37732673 23.2308929,1.26255446 23.5184524,1.26255446 C23.8634524,1.26255446 24.1509524,1.37732673 24.3234524,1.66425743 L28.463631,5.79623762 C28.866131,6.19794059 28.866131,6.82924752 28.463631,7.2309505 L28.406131,7.28833663 C28.0685119,7.67340594 27.4886905,7.73417822 27.0389286,7.47326733 L22.5221429,2.96542574 C22.4204167,2.79148515 22.3683929,2.60108911 22.3683929,2.41027723 C22.3683929,2.12334653 22.4833929,1.83641584 22.7133929,1.60687129 Z M19.0907738,4.41891089 C18.6307738,3.95982178 18.6307738,3.27112871 19.0907738,2.8120396 C19.3207738,2.58249505 19.6082738,2.46772277 19.8958333,2.46772277 C20.1833929,2.46772277 20.4708333,2.58249505 20.7008929,2.8120396 L27.198631,9.29691089 C27.428631,9.52645545 27.543631,9.81338614 27.543631,10.1003762 C27.543631,10.3873663 27.428631,10.6742376 27.198631,10.9038416 C26.796131,11.3629307 26.0485714,11.3629307 25.5885714,10.9038416 L24.7835119,10.1003762 L24.7835119,10.1003762 L19.8958333,5.22237624 L19.8958333,5.22237624 L19.0907738,4.41891089 Z M19.8382738,6.88663366 L23.1158929,10.1577624 L19.1194643,14.1462772 L15.8418452,10.8751485 L19.8382738,6.88663366 Z M1.61005952,5.62407921 L5.6352381,1.54948515 C5.8652381,1.31994059 6.1527381,1.20516832 6.44029762,1.20516832 C6.78529762,1.20516832 7.07279762,1.31994059 7.30285714,1.54948515 C7.73172619,1.97750495 7.76035714,2.60489109 7.38952381,3.05994059 L2.99345238,7.40845545 C2.55339286,7.67792079 1.99952381,7.61964356 1.61005952,7.2309505 C1.15005952,6.77180198 1.15005952,6.08316832 1.61005952,5.62407921 Z M4.42767857,10.846396 C3.96767857,11.3054851 3.27761905,11.3054851 2.81761905,10.846396 C2.35761905,10.3873069 2.35761905,9.69861386 2.81761905,9.23952475 L3.80339286,8.25570297 C3.89803571,8.18893069 3.99130952,8.11544554 4.08267857,8.03435644 L8.16535714,3.95976238 C8.27238095,3.8529505 8.36642857,3.73889109 8.44857143,3.61972277 L9.31541667,2.75459406 C9.54541667,2.5250495 9.83291667,2.41027723 10.1204762,2.41027723 C10.4080357,2.41027723 10.6954762,2.5250495 10.9255357,2.75459406 C11.1555357,2.98413861 11.2705357,3.27106931 11.2705357,3.55805941 C11.2705357,3.8450495 11.1555357,4.13192079 10.9255357,4.36152475 L10.1204762,5.1649901 L5.23279762,10.0429901 L4.42767857,10.846396 Z M8.48160714,8.43611881 L10.1204167,6.82924752 L14.2121429,10.8948119 L14.2030952,10.9038416 L19.0907738,15.7818416 L19.1106548,15.762 L23.1159524,19.7416634 L19.8383333,23.0127921 L6.86428571,10.0644356 L8.48160714,8.43611881 Z M7.30279762,28.3498812 L7.13029762,28.5220396 C6.78529762,28.8663564 6.1527381,28.8663564 5.8077381,28.5220396 L1.55255952,24.3326733 C1.15005952,23.8735842 1.15005952,23.1848911 1.55255952,22.7831881 L1.61005952,22.725802 C1.84005952,22.4962574 2.12755952,22.3814851 2.41511905,22.3814851 C2.70267857,22.3814851 2.99011905,22.4388713 3.22017857,22.6684158 L7.30285714,26.7430099 C7.76279762,27.202099 7.76279762,27.8907327 7.30279762,28.3498812 Z M10.9254167,25.5378416 C11.3854167,25.9969307 11.3854167,26.6856238 10.9254167,27.1447129 C10.4654167,27.603802 9.77535714,27.603802 9.31535714,27.1447129 L8.10791667,25.9396634 C8.10785714,25.939604 8.10785714,25.9395446 8.10779762,25.9395446 L4.02517857,21.8649505 C4.02517857,21.8649505 4.02517857,21.8649505 4.02517857,21.8649505 L2.81761905,20.6597822 C2.58761905,20.4302376 2.47261905,20.1433069 2.47261905,19.8563168 C2.47261905,19.5693267 2.58761905,19.2824554 2.81761905,19.0528515 C3.04761905,18.8233069 3.33511905,18.7085347 3.62267857,18.7085347 C3.91017857,18.7085347 4.19767857,18.8233069 4.42767857,19.0528515 L5.2327381,19.8563168 L10.1204167,24.7343168 L10.9254167,25.5378416 Z M14.2030357,19.0529703 L10.1203571,23.1275644 L6.8427381,19.8564356 L10.9829167,15.7818416 L10.9830952,15.7820198 L14.2030357,19.0529703 Z M19.0907738,27.0873267 C18.8607738,26.8577822 18.7457738,26.5708515 18.7457738,26.2838614 C18.7457738,25.9968713 18.8607738,25.71 19.0907738,25.480396 L19.8958333,24.6769307 L19.8958333,24.6769307 L24.7835119,19.7989307 L24.7835119,19.7989307 L25.5885119,18.9955248 C25.8185119,18.7659802 26.1060119,18.6512079 26.3935714,18.6512079 C26.681131,18.6512079 26.9685714,18.7659802 27.198631,18.9955248 C27.658631,19.4546139 27.658631,20.1433069 27.198631,20.602396 L25.991131,21.807505 C25.991131,21.807505 25.9910714,21.8075644 25.9910714,21.8075644 L23.9497619,23.8448317 L20.7008929,27.0872673 C20.2982738,27.5464158 19.5507738,27.5464158 19.0907738,27.0873267 Z M28.521131,24.217901 L24.1509524,28.5794257 C23.8059524,28.9237426 23.2883929,28.9237426 22.9433929,28.5794257 L22.7133929,28.3498812 C22.2533929,27.8907921 22.2533929,27.202099 22.7133929,26.7430099 L24.7833929,24.6771089 L26.9973214,22.5063564 C27.1840476,22.3854059 27.3924405,22.324099 27.601131,22.324099 C27.888631,22.324099 28.176131,22.4388713 28.4636905,22.725802 L28.5211905,22.7831881 C28.923631,23.1848911 28.923631,23.816198 28.521131,24.217901 Z" id="Shape"></path>
                </g>
                <g id="gym-svgrepo-com" opacity="0.302594866" transform="translate(18.000000, 117.000000)">
                    <path d="M23.2450684,2.73757598 C21.5367187,0.92711376 19.7450684,0.000789452909 17.7867187,0.000789452909 C15.6200684,0.000789452909 13.6200684,1.34813886 12.4533691,3.57962619 C11.3283691,1.34808952 9.32836914,0.000789452909 7.16171875,0.000789452909 C5.24506836,0.000789452909 3.45336914,0.884976711 1.70336914,2.73757598 C-0.254980469,4.84280019 -1.12998047,9.68476159 2.45336914,13.3057354 C4.16171875,15.0320222 12.1200195,23.3265079 12.2033691,23.4107326 C12.2867187,23.4949574 12.3700195,23.5370451 12.4950195,23.5370451 C12.5783691,23.5370451 12.7033691,23.4949574 12.7866699,23.4107326 C12.8699707,23.3265079 20.7866699,15.0320222 22.4950195,13.3057354 C24.5366699,11.2005112 24.9533691,8.96902384 24.9533691,7.45327426 C24.9533691,5.64276269 24.2867187,3.87438817 23.2450684,2.73757598 Z M21.9117188,12.7162608 C20.4117188,14.2320103 13.9533691,20.9686587 12.4950684,22.5265454 C11.0367188,21.0107958 4.57841797,14.2320103 3.07841797,12.7162608 C-0.129931641,9.47422436 0.578417969,5.17960054 2.32841797,3.3270506 C3.87006836,1.64290084 5.45341797,0.842889003 7.16176758,0.842889003 C9.24511719,0.842889003 11.1201172,2.35863859 12.078418,4.75857543 C12.1200684,4.8848879 12.2867676,5.01120036 12.453418,5.01120036 C12.6200684,5.01120036 12.7867676,4.92697561 12.828418,4.75857543 C13.7867676,2.35863859 15.6617676,0.842889003 17.7867676,0.842889003 C19.4951172,0.842889003 21.1201172,1.68498855 22.6617676,3.3270506 C24.3700684,5.17960054 25.0783691,9.51631207 21.9117188,12.7162608 Z" id="Shape" fill="#1D09C0"></path>
                    <path d="M18.4950684,7.53744967 C18.2446777,7.53744967 18.0069336,7.60499724 17.7986816,7.72242836 C17.6068359,7.13344715 17.0500488,6.69535012 16.4117187,6.69535012 C15.6200684,6.69535012 14.9533691,7.36900016 14.9533691,8.169012 L14.9533691,8.84266204 L9.95336914,8.84266204 L9.95336914,8.169012 C9.95336914,7.3690495 9.28671875,6.69535012 8.49501953,6.69535012 C7.85668945,6.69535012 7.29990234,7.13339781 7.10805664,7.72242836 C6.89980469,7.60499724 6.66206055,7.53744967 6.41166992,7.53744967 C5.62001953,7.53744967 4.95332031,8.21109971 4.95332031,9.01111155 L4.95332031,11.1163358 C4.95332031,11.9162983 5.6199707,12.5899976 6.41166992,12.5899976 C6.66303711,12.5899976 6.90170898,12.5261506 7.11049805,12.412272 C7.30454102,12.997602 7.85932617,13.4320972 8.4949707,13.4320972 C9.28662109,13.4320972 9.95332031,12.8005349 9.95332031,11.9584353 L9.95332031,11.3689607 L14.9533203,11.3689607 L14.9533203,11.9584353 C14.9533203,12.7583978 15.6199707,13.4320972 16.4116699,13.4320972 C17.0547363,13.4320972 17.6152832,13.0154141 17.8030762,12.4076834 C18.0102051,12.5235849 18.2464355,12.590047 18.4949707,12.590047 C19.2866211,12.590047 19.9533203,11.9584846 19.9533203,11.1163851 L19.9533203,9.01116089 C19.9533203,8.21109971 19.2867187,7.53744967 18.4950684,7.53744967 Z M6.41171875,11.7478487 C6.07836914,11.7478487 5.78671875,11.4531361 5.78671875,11.1162864 L5.78671875,9.01106221 C5.78671875,8.67421252 6.07836914,8.37949988 6.41171875,8.37949988 C6.74506836,8.37949988 7.03671875,8.67421252 7.03671875,9.01106221 L7.03671875,11.1162864 C7.03671875,11.4531361 6.74506836,11.7478487 6.41171875,11.7478487 Z M9.12006836,11.958386 C9.12006836,12.2952357 8.82841797,12.5899483 8.49506836,12.5899483 C8.16171875,12.5899483 7.87006836,12.2952357 7.87006836,11.958386 L7.87006836,11.1162864 L7.87006836,9.01106221 L7.87006836,8.16896266 C7.87006836,7.83211297 8.16171875,7.53740033 8.49506836,7.53740033 C8.82841797,7.53740033 9.12006836,7.83211297 9.12006836,8.16896266 L9.12006836,9.26368714 L9.12006836,10.9478369 L9.12006836,11.958386 Z M9.95336914,10.5268118 L9.95336914,9.68471224 L14.9533691,9.68471224 L14.9533691,10.5268118 L9.95336914,10.5268118 Z M17.0367187,11.958386 C17.0367187,12.2952357 16.7450684,12.5899483 16.4117187,12.5899483 C16.0783691,12.5899483 15.7867187,12.2952357 15.7867187,11.958386 L15.7867187,10.9478862 L15.7867187,9.26373648 L15.7867187,8.169012 C15.7867187,7.83216231 16.0783691,7.53744967 16.4117187,7.53744967 C16.7450684,7.53744967 17.0367187,7.83216231 17.0367187,8.169012 L17.0367187,9.01111155 L17.0367187,11.1163358 L17.0367187,11.958386 Z M19.1200684,11.1162864 C19.1200684,11.4531361 18.828418,11.7478487 18.4950684,11.7478487 C18.1617187,11.7478487 17.8700684,11.4531361 17.8700684,11.1162864 L17.8700684,9.01106221 C17.8700684,8.67421252 18.1617187,8.37949988 18.4950684,8.37949988 C18.828418,8.37949988 19.1200684,8.67421252 19.1200684,9.01106221 L19.1200684,11.1162864 Z" id="Shape" fill="#1D0BC4"></path>
                </g>
                <g id="timer-svgrepo-com" opacity="0.673223586" transform="translate(253.000000, 23.000000)" fill="#1D0BC4">
                    <path d="M26.8094521,9.4474898 L29.6193151,6.58593878 L26.6661644,3.60948163 L23.8117808,6.51689796 C22.4265753,5.49467755 20.8630822,4.70650204 19.1777397,4.21058776 L19.1777397,2.2785551 C19.1777397,1.0222898 18.1686301,0 16.9279452,0 L13.0713699,0 C11.8313699,0 10.8221918,1.0222898 10.8221918,2.2785551 L10.8221918,4.21044898 C4.57821918,6.04769796 0.00095890411,11.8945878 0.00095890411,18.8047061 C0.00095890411,27.1836245 6.72938356,34 14.999589,34 C23.2704795,34 29.9989726,27.1836245 29.9989726,18.8047061 C29.9989726,15.2782122 28.8067808,12.0287143 26.8094521,9.4474898 Z M28.5828767,19.5130163 C28.4187671,22.7793061 27.1262329,25.7487551 25.0938356,28.0290449 L23.9404795,26.8606245 L22.9517123,27.8622367 L24.1050685,29.0307265 C21.8541781,31.0897388 18.9229452,32.3991551 15.6988356,32.5653388 L15.6988356,30.9058612 L14.300411,30.9058612 L14.300411,32.5653388 C11.0763699,32.3991551 8.14541096,31.0897388 5.89472603,29.0308653 L7.04828767,27.8622367 L6.05958904,26.8606245 L4.9060274,28.0292531 C2.87369863,25.7488939 1.58123288,22.7793755 1.41712329,19.5130163 L3.05513699,19.5130163 L3.05513699,18.0963959 L1.41712329,18.0963959 C1.58116438,14.8301061 2.87363014,11.8607265 4.90589041,9.58057551 L6.05952055,10.7487878 L7.04821918,9.74710612 L5.89452055,8.57896327 C8.14527397,6.52022857 11.0762329,5.21095102 14.3003425,5.04469796 L14.3003425,6.7042449 L15.6987671,6.7042449 L15.6987671,5.04469796 C18.9229452,5.21102041 21.8541781,6.52029796 24.1050685,8.57917143 L22.9515753,9.74717551 L23.9403425,10.7488571 L25.0938356,9.58078367 C27.1262329,11.8609347 28.4186986,14.8301755 28.5828767,18.0964653 L26.944726,18.0964653 L26.944726,19.5130857 L28.5828767,19.5130857 L28.5828767,19.5130163 Z M26.6716438,5.61270612 L27.6419178,6.5914898 L25.8937671,8.37149388 C25.5800685,8.03551837 25.2511644,7.71432245 24.9086301,7.40832245 L26.6716438,5.61270612 Z M12.2206164,2.2785551 C12.2206164,1.80331837 12.6023288,1.4166898 13.0713699,1.4166898 L16.9279452,1.4166898 C17.3976712,1.4166898 17.7793836,1.80338776 17.7793836,2.2785551 L17.7793836,3.87273878 C16.8782192,3.70100408 15.9493151,3.61010612 14.9996575,3.61010612 C14.050274,3.61010612 13.1215068,3.70100408 12.2206164,3.87266939 L12.2206164,2.2785551 L12.2206164,2.2785551 Z" id="Shape"></path>
                    <polygon id="Path" points="20.890274 7.52461633 22.0879452 8.25506122 15.5985616 19.1698939 14.4008904 18.439449"></polygon>
                </g>
                <g id="dumbbell-gym-svgrepo-com-(1)" opacity="0.44375465" transform="translate(29.000000, 25.000000) rotate(25.000000) translate(-29.000000, -25.000000) translate(4.000000, 10.000000)" fill="#1D0BC4">
                    <path d="M44.7701375,4.8759188 C43.5248412,4.8759188 42.5400244,5.34713853 41.5263191,6.1199505 L41.5263191,4.87504742 C41.5263191,2.1871489 39.3437416,0 36.6605915,0 C33.9774415,0 31.794864,2.1871489 31.794864,4.87504742 L31.794864,10.617112 L18.0088775,10.617112 L18.0088775,4.87504742 C18.0088775,2.1871489 15.8263,0 13.14315,0 C10.4599999,0 8.27742241,2.1871489 8.27742241,4.87504742 L8.27742241,6.11985368 C7.46651613,5.34704171 6.27899688,4.87582198 5.03360405,4.87582198 C2.35055062,4.8759188 0.167973124,7.06064721 0.167973124,9.74544752 L0.167973124,19.5098716 C0.167973124,22.1945751 2.35055062,24.3794004 5.03370067,24.3794004 C6.27899688,24.3794004 7.46651613,23.9083743 8.27751903,23.1354655 L8.27751903,24.3810463 C8.27751903,27.0689448 10.4600965,29.2553191 13.1432466,29.2553191 C15.8263966,29.2553191 18.0089741,27.0689448 18.0089741,24.3810463 L18.0089741,18.7437402 L31.7950572,18.7437402 L31.7950572,24.3810463 C31.7950572,27.0689448 33.9776347,29.2553191 36.6607848,29.2553191 C39.3439348,29.2553191 41.5265123,27.0689448 41.5265123,24.3810463 L41.5265123,23.1354655 C42.5402176,23.9084711 43.5249379,24.3794004 44.7703307,24.3794004 C47.4534807,24.3794004 49.6360582,22.1945751 49.6360582,19.5098716 L49.6360582,9.74544752 C49.6360582,7.06064721 47.4532875,4.8759188 44.7701375,4.8759188 Z M8.27742241,19.5098716 C8.27742241,21.2986089 6.82227413,22.7540941 5.03360405,22.7540941 C3.24503059,22.7540941 1.78978569,21.2986089 1.78978569,19.5098716 L1.78978569,9.74544752 C1.78978569,7.95671021 3.24493397,6.50122506 5.03360405,6.50122506 C6.82217752,6.50122506 8.27742241,7.95671021 8.27742241,9.74544752 L8.27742241,19.5098716 Z M16.3869683,11.377047 L16.3869683,17.8782721 L16.3869683,24.3810463 C16.3869683,26.1722041 14.93182,27.6300129 13.14315,27.6300129 C11.3545765,27.6300129 9.8993316,26.1722041 9.8993316,24.3810463 L9.8993316,19.5099684 L9.8993316,9.74544752 L9.8993316,4.87504742 C9.8993316,3.08311507 11.3544799,1.62520945 13.14315,1.62520945 C14.9317234,1.62520945 16.3869683,3.08301825 16.3869683,4.87504742 L16.3869683,11.377047 L16.3869683,11.377047 Z M31.7949606,17.1183371 L18.0088775,17.1183371 L18.0088775,12.2424183 L31.7949606,12.2424183 L31.7949606,17.1183371 Z M39.9045065,9.74544752 L39.9045065,19.5098716 L39.9045065,24.3809495 C39.9045065,26.1721073 38.4493582,27.6299161 36.6606882,27.6299161 C34.8721147,27.6299161 33.4168698,26.1721073 33.4168698,24.3809495 L33.4168698,17.8781753 L33.4168698,11.3769502 L33.4168698,4.87504742 C33.4168698,3.08311507 34.8720181,1.62520945 36.6606882,1.62520945 C38.4492616,1.62520945 39.9045065,3.08301825 39.9045065,4.87504742 L39.9045065,9.74544752 Z M48.0139558,19.5098716 C48.0139558,21.2986089 46.5588075,22.7540941 44.7701375,22.7540941 C42.981564,22.7540941 41.5263191,21.2986089 41.5263191,19.5098716 L41.5263191,9.74544752 C41.5263191,7.95671021 42.9814674,6.50122506 44.7701375,6.50122506 C46.5587109,6.50122506 48.0139558,7.95671021 48.0139558,9.74544752 L48.0139558,19.5098716 Z" id="Shape"></path>
                </g>
                <g id="dumbbell-gym-svgrepo-com-(1)" opacity="0.44375465" transform="translate(367.000000, 141.000000) rotate(25.000000) translate(-367.000000, -141.000000) translate(342.000000, 126.000000)" fill="#1D0BC4">
                    <path d="M44.7701375,4.8759188 C43.5248412,4.8759188 42.5400244,5.34713853 41.5263191,6.1199505 L41.5263191,4.87504742 C41.5263191,2.1871489 39.3437416,0 36.6605915,0 C33.9774415,0 31.794864,2.1871489 31.794864,4.87504742 L31.794864,10.617112 L18.0088775,10.617112 L18.0088775,4.87504742 C18.0088775,2.1871489 15.8263,0 13.14315,0 C10.4599999,0 8.27742241,2.1871489 8.27742241,4.87504742 L8.27742241,6.11985368 C7.46651613,5.34704171 6.27899688,4.87582198 5.03360405,4.87582198 C2.35055062,4.8759188 0.167973124,7.06064721 0.167973124,9.74544752 L0.167973124,19.5098716 C0.167973124,22.1945751 2.35055062,24.3794004 5.03370067,24.3794004 C6.27899688,24.3794004 7.46651613,23.9083743 8.27751903,23.1354655 L8.27751903,24.3810463 C8.27751903,27.0689448 10.4600965,29.2553191 13.1432466,29.2553191 C15.8263966,29.2553191 18.0089741,27.0689448 18.0089741,24.3810463 L18.0089741,18.7437402 L31.7950572,18.7437402 L31.7950572,24.3810463 C31.7950572,27.0689448 33.9776347,29.2553191 36.6607848,29.2553191 C39.3439348,29.2553191 41.5265123,27.0689448 41.5265123,24.3810463 L41.5265123,23.1354655 C42.5402176,23.9084711 43.5249379,24.3794004 44.7703307,24.3794004 C47.4534807,24.3794004 49.6360582,22.1945751 49.6360582,19.5098716 L49.6360582,9.74544752 C49.6360582,7.06064721 47.4532875,4.8759188 44.7701375,4.8759188 Z M8.27742241,19.5098716 C8.27742241,21.2986089 6.82227413,22.7540941 5.03360405,22.7540941 C3.24503059,22.7540941 1.78978569,21.2986089 1.78978569,19.5098716 L1.78978569,9.74544752 C1.78978569,7.95671021 3.24493397,6.50122506 5.03360405,6.50122506 C6.82217752,6.50122506 8.27742241,7.95671021 8.27742241,9.74544752 L8.27742241,19.5098716 Z M16.3869683,11.377047 L16.3869683,17.8782721 L16.3869683,24.3810463 C16.3869683,26.1722041 14.93182,27.6300129 13.14315,27.6300129 C11.3545765,27.6300129 9.8993316,26.1722041 9.8993316,24.3810463 L9.8993316,19.5099684 L9.8993316,9.74544752 L9.8993316,4.87504742 C9.8993316,3.08311507 11.3544799,1.62520945 13.14315,1.62520945 C14.9317234,1.62520945 16.3869683,3.08301825 16.3869683,4.87504742 L16.3869683,11.377047 L16.3869683,11.377047 Z M31.7949606,17.1183371 L18.0088775,17.1183371 L18.0088775,12.2424183 L31.7949606,12.2424183 L31.7949606,17.1183371 Z M39.9045065,9.74544752 L39.9045065,19.5098716 L39.9045065,24.3809495 C39.9045065,26.1721073 38.4493582,27.6299161 36.6606882,27.6299161 C34.8721147,27.6299161 33.4168698,26.1721073 33.4168698,24.3809495 L33.4168698,17.8781753 L33.4168698,11.3769502 L33.4168698,4.87504742 C33.4168698,3.08311507 34.8720181,1.62520945 36.6606882,1.62520945 C38.4492616,1.62520945 39.9045065,3.08301825 39.9045065,4.87504742 L39.9045065,9.74544752 Z M48.0139558,19.5098716 C48.0139558,21.2986089 46.5588075,22.7540941 44.7701375,22.7540941 C42.981564,22.7540941 41.5263191,21.2986089 41.5263191,19.5098716 L41.5263191,9.74544752 C41.5263191,7.95671021 42.9814674,6.50122506 44.7701375,6.50122506 C46.5587109,6.50122506 48.0139558,7.95671021 48.0139558,9.74544752 L48.0139558,19.5098716 Z" id="Shape"></path>
                </g>
            </g>
            <g id="Group-2" opacity="0.397786458" transform="translate(167.000000, 154.000000) rotate(-176.000000) translate(-167.000000, -154.000000) translate(7.000000, 60.000000)">
                <path d="M141.780374,173.776328 C141.050336,173.776328 140.473,174.05015 139.878729,174.499224 L139.878729,173.775822 C139.878729,172.213908 138.599223,170.942976 137.026262,170.942976 C135.453301,170.942976 134.173795,172.213908 134.173795,173.775822 L134.173795,177.112483 L126.091945,177.112483 L126.091945,173.775822 C126.091945,172.213908 124.812439,170.942976 123.239478,170.942976 C121.666517,170.942976 120.387011,172.213908 120.387011,173.775822 L120.387011,174.499167 C119.911628,174.050093 119.21546,173.776272 118.485366,173.776272 C116.912462,173.776328 115.632955,175.045854 115.632955,176.605967 L115.632955,182.279985 C115.632955,183.840042 116.912462,185.109624 118.485422,185.109624 C119.21546,185.109624 119.911628,184.835915 120.387067,184.386785 L120.387067,185.11058 C120.387067,186.672494 121.666574,187.942976 123.239535,187.942976 C124.812495,187.942976 126.092002,186.672494 126.092002,185.11058 L126.092002,181.834793 L134.173908,181.834793 L134.173908,185.11058 C134.173908,186.672494 135.453415,187.942976 137.026375,187.942976 C138.599336,187.942976 139.878843,186.672494 139.878843,185.11058 L139.878843,184.386785 C140.473114,184.835971 141.050393,185.109624 141.780488,185.109624 C143.353448,185.109624 144.632955,183.840042 144.632955,182.279985 L144.632955,176.605967 C144.632955,175.045854 143.353335,173.776328 141.780374,173.776328 Z M120.387011,182.279985 C120.387011,183.319404 119.533949,184.165173 118.485366,184.165173 C117.436838,184.165173 116.583721,183.319404 116.583721,182.279985 L116.583721,176.605967 C116.583721,175.566548 117.436782,174.720779 118.485366,174.720779 C119.533893,174.720779 120.387011,175.566548 120.387011,176.605967 L120.387011,182.279985 Z M125.141123,177.554075 L125.141123,181.331877 L125.141123,185.11058 C125.141123,186.151406 124.288062,186.998525 123.239478,186.998525 C122.190951,186.998525 121.337833,186.151406 121.337833,185.11058 L121.337833,182.280041 L121.337833,176.605967 L121.337833,173.775822 C121.337833,172.734546 122.190894,171.88737 123.239478,171.88737 C124.288005,171.88737 125.141123,172.73449 125.141123,173.775822 L125.141123,177.554075 L125.141123,177.554075 Z M134.173851,180.890286 L126.091945,180.890286 L126.091945,178.056934 L134.173851,178.056934 L134.173851,180.890286 Z M138.927963,176.605967 L138.927963,182.279985 L138.927963,185.110524 C138.927963,186.15135 138.074902,186.998469 137.026319,186.998469 C135.977791,186.998469 135.124674,186.15135 135.124674,185.110524 L135.124674,181.331821 L135.124674,177.554018 L135.124674,173.775822 C135.124674,172.734546 135.977735,171.88737 137.026319,171.88737 C138.074846,171.88737 138.927963,172.73449 138.927963,173.775822 L138.927963,176.605967 Z M143.682019,182.279985 C143.682019,183.319404 142.828958,184.165173 141.780374,184.165173 C140.731847,184.165173 139.878729,183.319404 139.878729,182.279985 L139.878729,176.605967 C139.878729,175.566548 140.73179,174.720779 141.780374,174.720779 C142.828901,174.720779 143.682019,175.566548 143.682019,176.605967 L143.682019,182.279985 Z" id="Shape" fill="#1D0BC4"></path>
                <g id="dumbbell-gym-svgrepo-com-(1)" opacity="0.44375465" transform="translate(39.611976, 14.328909) rotate(25.000000) translate(-39.611976, -14.328909) translate(25.111976, 5.828909)" fill="#1D0BC4">
                    <path d="M25.6783944,2.80328053 C24.9641414,2.80328053 24.3992891,3.07419585 23.8178675,3.51850365 L23.8178675,2.80277956 C23.8178675,1.2574434 22.5660266,0 21.027077,0 C19.4881274,0 18.2362866,1.2574434 18.2362866,2.80277956 L18.2362866,6.10402772 L10.3291856,6.10402772 L10.3291856,2.80277956 C10.3291856,1.2574434 9.07734478,0 7.53839518,0 C5.99944558,0 4.74760475,1.2574434 4.74760475,2.80277956 L4.74760475,3.51844799 C4.28250072,3.07414019 3.60138627,2.80322487 2.8870778,2.80322487 C1.34818362,2.80328053 0.0963427941,4.05933234 0.0963427941,5.60288726 L0.0963427941,11.2166846 C0.0963427941,12.7601839 1.34818362,14.0162913 2.88713322,14.0162913 C3.60138627,14.0162913 4.28250072,13.7454873 4.74766017,13.3011239 L4.74766017,14.0172376 C4.74766017,15.5625738 5.99950099,16.8195719 7.53845059,16.8195719 C9.0774002,16.8195719 10.329241,15.5625738 10.329241,14.0172376 L10.329241,10.7762176 L18.2363974,10.7762176 L18.2363974,14.0172376 C18.2363974,15.5625738 19.4882383,16.8195719 21.0271879,16.8195719 C22.5661375,16.8195719 23.8179783,15.5625738 23.8179783,14.0172376 L23.8179783,13.3011239 C24.3993999,13.745543 24.9641968,14.0162913 25.6785052,14.0162913 C27.2174548,14.0162913 28.4692957,12.7601839 28.4692957,11.2166846 L28.4692957,5.60288726 C28.4692957,4.05933234 27.217344,2.80328053 25.6783944,2.80328053 Z M4.74760475,11.2166846 C4.74760475,12.2450718 3.91298879,13.0818645 2.8870778,13.0818645 C1.86122223,13.0818645 1.02655085,12.2450718 1.02655085,11.2166846 L1.02655085,5.60288726 C1.02655085,4.57450006 1.86116682,3.73770738 2.8870778,3.73770738 C3.91293337,3.73770738 4.74760475,4.57450006 4.74760475,5.60288726 L4.74760475,11.2166846 Z M9.39892213,6.54093224 L9.39892213,10.2786396 L9.39892213,14.0172376 C9.39892213,15.0470164 8.56430616,15.885145 7.53839518,15.885145 C6.51253961,15.885145 5.67786823,15.0470164 5.67786823,14.0172376 L5.67786823,11.2167403 L5.67786823,5.60288726 L5.67786823,2.80277956 C5.67786823,1.77255545 6.51248419,0.93437118 7.53839518,0.93437118 C8.56425075,0.93437118 9.39892213,1.77249979 9.39892213,2.80277956 L9.39892213,6.54093224 L9.39892213,6.54093224 Z M18.236342,9.84173509 L10.3291856,9.84173509 L10.3291856,7.03845456 L18.236342,7.03845456 L18.236342,9.84173509 Z M22.8876594,5.60288726 L22.8876594,11.2166846 L22.8876594,14.017182 C22.8876594,15.0469607 22.0530434,15.8850894 21.0271324,15.8850894 C20.0012769,15.8850894 19.1666055,15.0469607 19.1666055,14.017182 L19.1666055,10.278584 L19.1666055,6.54087658 L19.1666055,2.80277956 C19.1666055,1.77255545 20.0012215,0.93437118 21.0271324,0.93437118 C22.052988,0.93437118 22.8876594,1.77249979 22.8876594,2.80277956 L22.8876594,5.60288726 Z M27.5389214,11.2166846 C27.5389214,12.2450718 26.7043054,13.0818645 25.6783944,13.0818645 C24.6525388,13.0818645 23.8178675,12.2450718 23.8178675,11.2166846 L23.8178675,5.60288726 C23.8178675,4.57450006 24.6524834,3.73770738 25.6783944,3.73770738 C26.70425,3.73770738 27.5389214,4.57450006 27.5389214,5.60288726 L27.5389214,11.2166846 Z" id="Shape"></path>
                </g>
                <g id="gym-svgrepo-com" transform="translate(248.320368, 20.311001) rotate(190.000000) translate(-248.320368, -20.311001) translate(239.820368, 12.311001)">
                    <path d="M15.8066465,1.85717155 C14.6449687,0.628953975 13.4266465,0.000535564854 12.0949687,0.000535564854 C10.6216465,0.000535564854 9.26164648,0.914577406 8.46829102,2.42841841 C7.70329102,0.914543933 6.34329102,0.000535564854 4.86996875,0.000535564854 C3.56664648,0.000535564854 2.34829102,0.600368201 1.15829102,1.85717155 C-0.173386719,3.28535565 -0.768386719,6.57014226 1.66829102,9.02661088 C2.82996875,10.1977238 8.24161328,15.8247029 8.29829102,15.881841 C8.35496875,15.9389791 8.41161328,15.9675314 8.49661328,15.9675314 C8.55329102,15.9675314 8.63829102,15.9389791 8.69493555,15.881841 C8.75158008,15.8247029 14.1349355,10.1977238 15.2966133,9.02661088 C16.6849355,7.59842678 16.968291,6.08458577 16.968291,5.05630126 C16.968291,3.82805021 16.5149687,2.62838494 15.8066465,1.85717155 Z M14.8999688,8.6267113 C13.8799688,9.65499582 9.48829102,14.2251381 8.49664648,15.2820084 C7.50496875,14.2537238 3.11332422,9.65499582 2.09332422,8.6267113 C-0.0883535156,6.42731381 0.393324219,3.513841 1.58332422,2.25707113 C2.63164648,1.11454393 3.70832422,0.5718159 4.87000195,0.5718159 C6.28667969,0.5718159 7.56167969,1.60010042 8.21332422,3.22821757 C8.24164648,3.31390795 8.35500195,3.39959833 8.46832422,3.39959833 C8.58164648,3.39959833 8.69500195,3.34246025 8.72332422,3.22821757 C9.37500195,1.60010042 10.650002,0.5718159 12.095002,0.5718159 C13.2566797,0.5718159 14.3616797,1.14309623 15.410002,2.25707113 C16.5716465,3.513841 17.053291,6.45586611 14.8999688,8.6267113 Z" id="Shape" fill="#1D09C0"></path>
                    <path d="M12.5766465,5.11340586 C12.4063809,5.11340586 12.2447148,5.15923013 12.1031035,5.2388954 C11.9726484,4.83933054 11.5940332,4.54212552 11.1599688,4.54212552 C10.6216465,4.54212552 10.168291,4.99912971 10.168291,5.54185774 L10.168291,5.99886192 L6.76829102,5.99886192 L6.76829102,5.54185774 C6.76829102,4.99916318 6.31496875,4.54212552 5.77661328,4.54212552 C5.34254883,4.54212552 4.96393359,4.83929707 4.83347852,5.2388954 C4.69186719,5.15923013 4.53020117,5.11340586 4.35993555,5.11340586 C3.82161328,5.11340586 3.36825781,5.57041004 3.36825781,6.11313808 L3.36825781,7.54132218 C3.36825781,8.08401674 3.82158008,8.54105439 4.35993555,8.54105439 C4.53086523,8.54105439 4.69316211,8.49774059 4.83513867,8.42048536 C4.96708789,8.81757322 5.3443418,9.11233473 5.77658008,9.11233473 C6.31490234,9.11233473 6.76825781,8.68388285 6.76825781,8.11260251 L6.76825781,7.71270293 L10.1682578,7.71270293 L10.1682578,8.11260251 C10.1682578,8.65529707 10.6215801,9.11233473 11.1599355,9.11233473 C11.5972207,9.11233473 11.9783926,8.8296569 12.1060918,8.41737238 C12.2469395,8.496 12.4075762,8.54108787 12.5765801,8.54108787 C13.1149023,8.54108787 13.5682578,8.11263598 13.5682578,7.54135565 L13.5682578,6.11317155 C13.5682578,5.57041004 13.1149688,5.11340586 12.5766465,5.11340586 Z M4.35996875,7.96974059 C4.13329102,7.96974059 3.93496875,7.76980753 3.93496875,7.5412887 L3.93496875,6.1131046 C3.93496875,5.88458577 4.13329102,5.68465272 4.35996875,5.68465272 C4.58664648,5.68465272 4.78496875,5.88458577 4.78496875,6.1131046 L4.78496875,7.5412887 C4.78496875,7.76980753 4.58664648,7.96974059 4.35996875,7.96974059 Z M6.20164648,8.11256904 C6.20164648,8.34108787 6.00332422,8.54102092 5.77664648,8.54102092 C5.54996875,8.54102092 5.35164648,8.34108787 5.35164648,8.11256904 L5.35164648,7.5412887 L5.35164648,6.1131046 L5.35164648,5.54182427 C5.35164648,5.31330544 5.54996875,5.11337238 5.77664648,5.11337238 C6.00332422,5.11337238 6.20164648,5.31330544 6.20164648,5.54182427 L6.20164648,6.28448536 L6.20164648,7.42701255 L6.20164648,8.11256904 Z M6.76829102,7.14138912 L6.76829102,6.57010879 L10.168291,6.57010879 L10.168291,7.14138912 L6.76829102,7.14138912 Z M11.5849688,8.11256904 C11.5849688,8.34108787 11.3866465,8.54102092 11.1599688,8.54102092 C10.933291,8.54102092 10.7349688,8.34108787 10.7349688,8.11256904 L10.7349688,7.42704603 L10.7349688,6.28451883 L10.7349688,5.54185774 C10.7349688,5.31333891 10.933291,5.11340586 11.1599688,5.11340586 C11.3866465,5.11340586 11.5849688,5.31333891 11.5849688,5.54185774 L11.5849688,6.11313808 L11.5849688,7.54132218 L11.5849688,8.11256904 Z M13.0016465,7.5412887 C13.0016465,7.76980753 12.8033242,7.96974059 12.5766465,7.96974059 C12.3499688,7.96974059 12.1516465,7.76980753 12.1516465,7.5412887 L12.1516465,6.1131046 C12.1516465,5.88458577 12.3499688,5.68465272 12.5766465,5.68465272 C12.8033242,5.68465272 13.0016465,5.88458577 13.0016465,6.1131046 L13.0016465,7.5412887 Z" id="Shape" fill="#1D0BC4"></path>
                </g>
                <g id="timer-svgrepo-com" transform="translate(13.494786, 160.031959) rotate(-129.000000) translate(-13.494786, -160.031959) translate(4.994786, 150.031959)" fill="#1D0BC4">
                    <path d="M15.1920228,5.55734694 L16.7842785,3.87408163 L15.1108265,2.12322449 L13.4933425,3.83346939 C12.7083927,3.23216327 11.8224132,2.76853061 10.8673858,2.47681633 L10.8673858,1.34032653 C10.8673858,0.601346939 10.2955571,0 9.59250228,0 L7.40710959,0 C6.70444292,0 6.13257534,0.601346939 6.13257534,1.34032653 L6.13257534,2.47673469 C2.5943242,3.55746939 0.000543378995,6.99681633 0.000543378995,11.0615918 C0.000543378995,15.9903673 3.81331735,20 8.49976712,20 C13.186605,20 16.9994178,15.9903673 16.9994178,11.0615918 C16.9994178,8.98718367 16.3238425,7.07571429 15.1920228,5.55734694 Z M16.1969635,11.4782449 C16.103968,13.3995918 15.371532,15.1463265 14.2198402,16.4876735 L13.5662717,15.8003673 L13.0059703,16.389551 L13.6595388,17.076898 C12.3840342,18.2880816 10.7230023,19.0583265 8.89600685,19.1560816 L8.89600685,18.1799184 L8.10356621,18.1799184 L8.10356621,19.1560816 C6.27660959,19.0583265 4.61573288,18.2880816 3.34034475,17.0769796 L3.99402968,16.389551 L3.43376712,15.8003673 L2.78008219,16.4877959 C1.62842922,15.1464082 0.896031963,13.3996327 0.80303653,11.4782449 L1.73124429,11.4782449 L1.73124429,10.6449388 L0.80303653,10.6449388 C0.895993151,8.72359184 1.62839041,6.97689796 2.78000457,5.63563265 L3.43372831,6.32281633 L3.99399087,5.73359184 L3.34022831,5.04644898 C4.61565525,3.83542857 6.27653196,3.06526531 8.1035274,2.96746939 L8.1035274,3.94367347 L8.89596804,3.94367347 L8.89596804,2.96746939 C10.7230023,3.06530612 12.3840342,3.83546939 13.6595388,5.04657143 L13.0058927,5.73363265 L13.5661941,6.32285714 L14.2198402,5.6357551 C15.371532,6.97702041 16.1039292,8.72363265 16.1969635,10.6449796 L15.2686781,10.6449796 L15.2686781,11.4782857 L16.1969635,11.4782857 L16.1969635,11.4782449 Z M15.1139315,3.30159184 L15.6637534,3.87734694 L14.6731347,4.92440816 C14.4953721,4.72677551 14.3089932,4.53783673 14.1148904,4.35783673 L15.1139315,3.30159184 Z M6.92501598,1.34032653 C6.92501598,1.06077551 7.14131963,0.833346939 7.40710959,0.833346939 L9.59250228,0.833346939 C9.85868037,0.833346939 10.074984,1.06081633 10.074984,1.34032653 L10.074984,2.27808163 C9.5643242,2.17706122 9.03794521,2.12359184 8.49980594,2.12359184 C7.96182192,2.12359184 7.43552055,2.17706122 6.92501598,2.27804082 L6.92501598,1.34032653 L6.92501598,1.34032653 Z" id="Shape"></path>
                    <polygon id="Path" points="11.8378219 4.4262449 12.5165023 4.85591837 8.83918493 11.2764082 8.16050457 10.8467347"></polygon>
                </g>
                <g id="dumbbell-gym-svgrepo-com" transform="translate(237.636479, 137.771393)" fill="#1D0BC4">
                    <path d="M16.5855575,13.0845386 C16.4215278,12.911204 16.2284563,12.7925109 16.024625,12.7282455 C16.4184583,12.1802257 16.3775099,11.4185228 15.9012738,10.9152713 C15.3799067,10.3643287 14.5652897,10.3643287 14.0439563,10.9152713 L13.587756,11.3973505 L11.2905298,8.9698099 L13.5857321,6.54440792 L14.0439226,7.02434851 C14.272006,7.29980198 14.597873,7.43752871 14.9562897,7.43752871 C15.3147063,7.43752871 15.6079901,7.23093861 15.8686567,6.98988119 C16.1293234,6.74885941 16.2596567,6.37007525 16.2596567,6.02575842 C16.2596567,5.73472871 16.1661567,5.44384158 15.9798988,5.19437228 C16.1963452,5.14254653 16.402875,5.03622178 16.5529067,4.85504554 L16.6180734,4.78618218 C17.1068571,4.26967129 17.1068571,3.44331089 16.6180734,2.9268 L14.2719722,0.447611881 C13.7506052,-0.103330693 12.9359881,-0.103330693 12.4146548,0.447611881 C12.2450258,0.626863366 12.1309841,0.838978218 12.0717202,1.06249901 C11.5513988,0.622871287 10.813754,0.658728713 10.329254,1.17071287 C9.8078869,1.72165545 9.8078869,2.58248317 10.329254,3.1333901 L10.8038036,3.63047525 L8.52081151,6.04297426 L6.19302579,3.58314059 L6.64720238,3.09895842 C6.90786905,2.85793663 7.03820238,2.51358416 7.03820238,2.13483564 C7.03820238,1.75608713 6.90786905,1.41173465 6.64720238,1.17071287 C6.41911905,0.895259406 6.09325198,0.757532673 5.73483532,0.757532673 C5.46846825,0.757532673 5.20213492,0.849706931 4.9713869,1.0337703 C4.91259524,0.808182178 4.79801389,0.593964356 4.62696825,0.413215842 C4.10560119,-0.137726733 3.29098413,-0.137726733 2.76965079,0.413215842 L0.456200397,2.85793663 C-0.0651666667,3.40887921 -0.0651666667,4.26970693 0.456200397,4.82061386 C0.621950397,4.99576634 0.814077381,5.11499406 1.01575,5.1787604 C0.623367063,5.72663762 0.664787698,6.4872 1.14048413,6.98988119 C1.40115079,7.26533465 1.72701786,7.40306139 2.05285119,7.40306139 C2.37868452,7.40306139 2.70455159,7.26533465 2.96521825,7.02431287 L3.43561905,6.52284356 L5.75119444,8.96977426 L3.42138492,11.4317465 L2.96518452,10.949703 C2.73710119,10.6742495 2.37865079,10.5365228 2.05281746,10.5365228 C1.72698413,10.5365228 1.40111706,10.6742495 1.1404504,10.949703 C0.87978373,11.1907248 0.749450397,11.5350772 0.749450397,11.9138257 C0.749450397,12.2063168 0.843861111,12.4986297 1.03194048,12.7488832 C0.810704365,12.8090495 0.600295635,12.9322693 0.423617063,13.1189703 L0.39103373,13.153402 C-0.09775,13.6699129 -0.09775,14.5307406 0.39103373,15.0472158 L2.80230159,17.5952673 C3.03038492,17.8362891 3.35625198,17.9740158 3.64950198,17.9740158 C3.97533532,17.9740158 4.26861905,17.8362891 4.49670238,17.5952673 L4.59445238,17.526404 C4.77113095,17.339703 4.88773611,17.1173228 4.94467262,16.8835723 C5.18152579,17.0823208 5.45814683,17.1820871 5.73490278,17.1820871 C6.06073611,17.1820871 6.41918651,17.0443604 6.64726984,16.8033386 C7.1686369,16.252396 7.1686369,15.3915683 6.64726984,14.8406614 L6.19106944,14.3585822 L8.52087897,11.8966099 L10.8181052,14.3241505 L10.3619048,14.8061941 C10.1012381,15.0472158 9.97090476,15.3915683 9.97090476,15.7703168 C9.97090476,16.1146337 10.1338214,16.4589861 10.3619048,16.7344396 C10.5899881,17.0098931 10.9158552,17.1476198 11.2742718,17.1476198 C11.5475536,17.1476198 11.8434345,17.0503485 12.0664583,16.8565901 C12.1240357,17.0876317 12.2399325,17.3072317 12.4147222,17.4919366 L12.5450556,17.6296634 C12.7405556,17.8706851 13.0338393,17.9740158 13.3270893,17.9740158 C13.6203393,17.9740158 13.913623,17.8362535 14.1417063,17.5952317 L16.6181409,14.9783168 C17.1069246,14.4618059 17.1069246,13.6354455 16.6181409,13.1189347 L16.5855575,13.0845386 Z M12.8709226,0.964122772 C13.001256,0.82639604 13.1641726,0.757532673 13.327123,0.757532673 C13.522623,0.757532673 13.6855397,0.82639604 13.7832897,0.998554455 L16.1293909,3.47774257 C16.3574742,3.71876436 16.3574742,4.09754851 16.1293909,4.3385703 L16.0968075,4.37300198 C15.9054901,4.60404356 15.5769246,4.64050693 15.3220595,4.4839604 L12.7625476,1.77925545 C12.7049028,1.67489109 12.6754226,1.56065347 12.6754226,1.44616634 C12.6754226,1.27400792 12.7405893,1.1018495 12.8709226,0.964122772 Z M10.8181052,2.65134653 C10.5574385,2.37589307 10.5574385,1.96267723 10.8181052,1.68722376 C10.9484385,1.54949703 11.1113552,1.48063366 11.2743056,1.48063366 C11.437256,1.48063366 11.6001389,1.54949703 11.730506,1.68722376 L15.4125575,5.57814653 C15.5428909,5.71587327 15.6080575,5.88803168 15.6080575,6.06022574 C15.6080575,6.2324198 15.5428909,6.40454257 15.4125575,6.54230495 C15.1844742,6.81775842 14.7608571,6.81775842 14.5001905,6.54230495 L14.0439901,6.06022574 L14.0439901,6.06022574 L11.2743056,3.13342574 L11.2743056,3.13342574 L10.8181052,2.65134653 Z M11.2416885,4.1319802 L13.099006,6.09465743 L10.8343631,8.48776634 L8.97704563,6.52508911 L11.2416885,4.1319802 Z M0.912367063,3.37444752 L3.19330159,0.929691089 C3.32363492,0.791964356 3.48655159,0.72310099 3.64950198,0.72310099 C3.84500198,0.72310099 4.00791865,0.791964356 4.13828571,0.929691089 C4.38131151,1.18650297 4.39753571,1.56293465 4.18739683,1.83596436 L1.69628968,4.44507327 C1.44692262,4.60675248 1.13306349,4.57178614 0.912367063,4.3385703 C0.651700397,4.06308119 0.651700397,3.64990099 0.912367063,3.37444752 Z M2.50901786,6.50783762 C2.24835119,6.78329109 1.85731746,6.78329109 1.59665079,6.50783762 C1.33598413,6.23238416 1.33598413,5.81916832 1.59665079,5.54371485 L2.15525595,4.95342178 C2.2088869,4.91335842 2.26174206,4.86926733 2.31351786,4.82061386 L4.62703571,2.37585743 C4.68768254,2.3117703 4.74097619,2.24333465 4.78752381,2.17183366 L5.27873611,1.65275644 C5.40906944,1.5150297 5.57198611,1.44616634 5.73493651,1.44616634 C5.8978869,1.44616634 6.06076984,1.5150297 6.1911369,1.65275644 C6.32147024,1.79048317 6.3866369,1.96264158 6.3866369,2.13483564 C6.3866369,2.3070297 6.32147024,2.47915248 6.1911369,2.61691485 L5.73493651,3.09899406 L2.96525198,6.02579406 L2.50901786,6.50783762 Z M4.80624405,5.06167129 L5.73490278,4.09754851 L8.05354762,6.53688713 L8.04842063,6.54230495 L10.8181052,9.46910495 L10.829371,9.4572 L13.0990397,11.844998 L11.2417222,13.8076752 L3.8897619,6.03866139 L4.80624405,5.06167129 Z M4.13825198,17.0099287 L4.04050198,17.1132238 C3.84500198,17.3198139 3.48655159,17.3198139 3.29105159,17.1132238 L0.87978373,14.599604 C0.651700397,14.3241505 0.651700397,13.9109347 0.87978373,13.6699129 L0.912367063,13.6354812 C1.0427004,13.4977545 1.20561706,13.4288911 1.36856746,13.4288911 C1.53151786,13.4288911 1.69440079,13.4633228 1.82476786,13.6010495 L4.13828571,16.0458059 C4.39891865,16.3212594 4.39891865,16.7344396 4.13825198,17.0099287 Z M6.19106944,15.322705 C6.45173611,15.5981584 6.45173611,16.0113743 6.19106944,16.2868277 C5.93040278,16.5622812 5.53936905,16.5622812 5.27870238,16.2868277 L4.59448611,15.563798 C4.59445238,15.5637624 4.59445238,15.5637267 4.59441865,15.5637267 L2.28093452,13.1189703 C2.28093452,13.1189703 2.28093452,13.1189703 2.28093452,13.1189703 L1.59665079,12.3958693 C1.46631746,12.2581426 1.40115079,12.0859842 1.40115079,11.9137901 C1.40115079,11.741596 1.46631746,11.5694733 1.59665079,11.4317109 C1.72698413,11.2939842 1.88990079,11.2251208 2.05285119,11.2251208 C2.21576786,11.2251208 2.37868452,11.2939842 2.50901786,11.4317109 L2.96521825,11.9137901 L5.73490278,14.8405901 L6.19106944,15.322705 Z M8.0483869,11.4317822 L5.73486905,13.8765386 L3.87755159,11.9138614 L6.22365278,9.46910495 L6.22375397,9.46921188 L8.0483869,11.4317822 Z M10.8181052,16.252396 C10.6877718,16.1146693 10.6226052,15.9425109 10.6226052,15.7703168 C10.6226052,15.5981228 10.6877718,15.426 10.8181052,15.2882376 L11.2743056,14.8061584 L11.2743056,14.8061584 L14.0439901,11.8793584 L14.0439901,11.8793584 L14.5001567,11.3973149 C14.6304901,11.2595881 14.7934067,11.1907248 14.9563571,11.1907248 C15.1193075,11.1907248 15.2821905,11.2595881 15.4125575,11.3973149 C15.6732242,11.6727683 15.6732242,12.0859842 15.4125575,12.3614376 L14.7283075,13.084503 C14.7283075,13.084503 14.7282738,13.0845386 14.7282738,13.0845386 L13.5715317,14.306899 L11.730506,16.2523604 C11.5023552,16.5278495 11.0787718,16.5278495 10.8181052,16.252396 Z M16.1619742,14.5307406 L13.6855397,17.1476554 C13.4900397,17.3542455 13.196756,17.3542455 13.001256,17.1476554 L12.8709226,17.0099287 C12.610256,16.7344752 12.610256,16.3212594 12.8709226,16.0458059 L14.0439226,14.8062653 L15.2984821,13.5038139 C15.4042937,13.4312436 15.5223829,13.3944594 15.6406409,13.3944594 C15.8035575,13.3944594 15.9664742,13.4633228 16.1294246,13.6354812 L16.1620079,13.6699129 C16.3900575,13.9109347 16.3900575,14.2897188 16.1619742,14.5307406 Z" id="Shape"></path>
                </g>
                <g id="gym-svgrepo-com" transform="translate(25.591395, 74.980962) rotate(180.000000) translate(-25.591395, -74.980962) translate(14.091395, 63.980962)">
                    <path d="M21.3854629,2.55361088 C19.8137812,0.864811715 18.1654629,0.000736401674 16.3637812,0.000736401674 C14.3704629,0.000736401674 12.5304629,1.25754393 11.4570996,3.33907531 C10.4220996,1.25749791 8.58209961,0.000736401674 6.58878125,0.000736401674 C4.82546289,0.000736401674 3.17709961,0.825506276 1.56709961,2.55361088 C-0.234582031,4.51736402 -1.03958203,9.03394561 2.25709961,12.41159 C3.82878125,14.0218703 11.150418,21.7589665 11.2270996,21.8375314 C11.3037812,21.9160962 11.380418,21.9553556 11.495418,21.9553556 C11.5720996,21.9553556 11.6870996,21.9160962 11.7637363,21.8375314 C11.840373,21.7589665 19.1237363,14.0218703 20.695418,12.41159 C22.5737363,10.4478368 22.9570996,8.36630544 22.9570996,6.95241423 C22.9570996,5.26356904 22.3437812,3.61402929 21.3854629,2.55361088 Z M20.1587813,11.861728 C18.7787813,13.2756192 12.8370996,19.5595649 11.4954629,21.0127615 C10.1537813,19.5988703 4.21214453,13.2756192 2.83214453,11.861728 C-0.119537109,8.83755649 0.532144531,4.83153138 2.14214453,3.1034728 C3.56046289,1.53249791 5.01714453,0.786246862 6.58882617,0.786246862 C8.50550781,0.786246862 10.2305078,2.20013808 11.1121445,4.43879916 C11.1504629,4.55662343 11.3038262,4.6744477 11.4571445,4.6744477 C11.6104629,4.6744477 11.7638262,4.59588285 11.8021445,4.43879916 C12.6838262,2.20013808 14.4088262,0.786246862 16.3638262,0.786246862 C17.9355078,0.786246862 19.4305078,1.57175732 20.8488262,3.1034728 C22.4204629,4.83153138 23.0720996,8.8768159 20.1587813,11.861728 Z" id="Shape" fill="#1D09C0"></path>
                    <path d="M17.0154629,7.03093305 C16.7851035,7.03093305 16.5663789,7.09394142 16.3747871,7.20348117 C16.1982891,6.6540795 15.6860449,6.24542259 15.0987812,6.24542259 C14.3704629,6.24542259 13.7570996,6.87380335 13.7570996,7.62005439 L13.7570996,8.24843515 L9.15709961,8.24843515 L9.15709961,7.62005439 C9.15709961,6.87384937 8.54378125,6.24542259 7.81541797,6.24542259 C7.2281543,6.24542259 6.71591016,6.65403347 6.53941211,7.20348117 C6.34782031,7.09394142 6.1290957,7.03093305 5.89873633,7.03093305 C5.17041797,7.03093305 4.55705469,7.65931381 4.55705469,8.40556485 L4.55705469,10.369318 C4.55705469,11.115523 5.17037305,11.7439498 5.89873633,11.7439498 C6.12999414,11.7439498 6.34957227,11.6843933 6.5416582,11.5781674 C6.72017773,12.1241632 7.23058008,12.5294603 7.81537305,12.5294603 C8.54369141,12.5294603 9.15705469,11.9403389 9.15705469,11.1548285 L9.15705469,10.6049665 L13.7570547,10.6049665 L13.7570547,11.1548285 C13.7570547,11.9010335 14.370373,12.5294603 15.0987363,12.5294603 C15.6903574,12.5294603 16.2060605,12.1407782 16.3788301,11.573887 C16.5693887,11.682 16.7867207,11.7439958 17.015373,11.7439958 C17.7436914,11.7439958 18.3570547,11.1548745 18.3570547,10.369364 L18.3570547,8.40561088 C18.3570547,7.65931381 17.7437812,7.03093305 17.0154629,7.03093305 Z M5.89878125,10.9583933 C5.59209961,10.9583933 5.32378125,10.6834854 5.32378125,10.369272 L5.32378125,8.40551883 C5.32378125,8.09130544 5.59209961,7.81639749 5.89878125,7.81639749 C6.20546289,7.81639749 6.47378125,8.09130544 6.47378125,8.40551883 L6.47378125,10.369272 C6.47378125,10.6834854 6.20546289,10.9583933 5.89878125,10.9583933 Z M8.39046289,11.1547824 C8.39046289,11.4689958 8.12214453,11.7439038 7.81546289,11.7439038 C7.50878125,11.7439038 7.24046289,11.4689958 7.24046289,11.1547824 L7.24046289,10.369272 L7.24046289,8.40551883 L7.24046289,7.62000837 C7.24046289,7.30579498 7.50878125,7.03088703 7.81546289,7.03088703 C8.12214453,7.03088703 8.39046289,7.30579498 8.39046289,7.62000837 L8.39046289,8.64116736 L8.39046289,10.2121423 L8.39046289,11.1547824 Z M9.15709961,9.81941004 L9.15709961,9.03389958 L13.7570996,9.03389958 L13.7570996,9.81941004 L9.15709961,9.81941004 Z M15.6737812,11.1547824 C15.6737812,11.4689958 15.4054629,11.7439038 15.0987812,11.7439038 C14.7920996,11.7439038 14.5237812,11.4689958 14.5237812,11.1547824 L14.5237812,10.2121883 L14.5237812,8.64121339 L14.5237812,7.62005439 C14.5237812,7.305841 14.7920996,7.03093305 15.0987812,7.03093305 C15.4054629,7.03093305 15.6737812,7.305841 15.6737812,7.62005439 L15.6737812,8.40556485 L15.6737812,10.369318 L15.6737812,11.1547824 Z M17.5904629,10.369272 C17.5904629,10.6834854 17.3221445,10.9583933 17.0154629,10.9583933 C16.7087813,10.9583933 16.4404629,10.6834854 16.4404629,10.369272 L16.4404629,8.40551883 C16.4404629,8.09130544 16.7087813,7.81639749 17.0154629,7.81639749 C17.3221445,7.81639749 17.5904629,8.09130544 17.5904629,8.40551883 L17.5904629,10.369272 Z" id="Shape" fill="#1D0BC4"></path>
                </g>
                <g id="timer-svgrepo-com" transform="translate(167.856243, 13.338339)" fill="#1D0BC4">
                    <path d="M15.1920228,5.55734694 L16.7842785,3.87408163 L15.1108265,2.12322449 L13.4933425,3.83346939 C12.7083927,3.23216327 11.8224132,2.76853061 10.8673858,2.47681633 L10.8673858,1.34032653 C10.8673858,0.601346939 10.2955571,0 9.59250228,0 L7.40710959,0 C6.70444292,0 6.13257534,0.601346939 6.13257534,1.34032653 L6.13257534,2.47673469 C2.5943242,3.55746939 0.000543378995,6.99681633 0.000543378995,11.0615918 C0.000543378995,15.9903673 3.81331735,20 8.49976712,20 C13.186605,20 16.9994178,15.9903673 16.9994178,11.0615918 C16.9994178,8.98718367 16.3238425,7.07571429 15.1920228,5.55734694 Z M16.1969635,11.4782449 C16.103968,13.3995918 15.371532,15.1463265 14.2198402,16.4876735 L13.5662717,15.8003673 L13.0059703,16.389551 L13.6595388,17.076898 C12.3840342,18.2880816 10.7230023,19.0583265 8.89600685,19.1560816 L8.89600685,18.1799184 L8.10356621,18.1799184 L8.10356621,19.1560816 C6.27660959,19.0583265 4.61573288,18.2880816 3.34034475,17.0769796 L3.99402968,16.389551 L3.43376712,15.8003673 L2.78008219,16.4877959 C1.62842922,15.1464082 0.896031963,13.3996327 0.80303653,11.4782449 L1.73124429,11.4782449 L1.73124429,10.6449388 L0.80303653,10.6449388 C0.895993151,8.72359184 1.62839041,6.97689796 2.78000457,5.63563265 L3.43372831,6.32281633 L3.99399087,5.73359184 L3.34022831,5.04644898 C4.61565525,3.83542857 6.27653196,3.06526531 8.1035274,2.96746939 L8.1035274,3.94367347 L8.89596804,3.94367347 L8.89596804,2.96746939 C10.7230023,3.06530612 12.3840342,3.83546939 13.6595388,5.04657143 L13.0058927,5.73363265 L13.5661941,6.32285714 L14.2198402,5.6357551 C15.371532,6.97702041 16.1039292,8.72363265 16.1969635,10.6449796 L15.2686781,10.6449796 L15.2686781,11.4782857 L16.1969635,11.4782857 L16.1969635,11.4782449 Z M15.1139315,3.30159184 L15.6637534,3.87734694 L14.6731347,4.92440816 C14.4953721,4.72677551 14.3089932,4.53783673 14.1148904,4.35783673 L15.1139315,3.30159184 Z M6.92501598,1.34032653 C6.92501598,1.06077551 7.14131963,0.833346939 7.40710959,0.833346939 L9.59250228,0.833346939 C9.85868037,0.833346939 10.074984,1.06081633 10.074984,1.34032653 L10.074984,2.27808163 C9.5643242,2.17706122 9.03794521,2.12359184 8.49980594,2.12359184 C7.96182192,2.12359184 7.43552055,2.17706122 6.92501598,2.27804082 L6.92501598,1.34032653 L6.92501598,1.34032653 Z" id="Shape"></path>
                    <polygon id="Path" points="11.8378219 4.4262449 12.5165023 4.85591837 8.83918493 11.2764082 8.16050457 10.8467347"></polygon>
                </g>
                <g id="dumbbell-gym-svgrepo-com-(1)" opacity="0.44375465" transform="translate(39.611976, 14.328909) rotate(25.000000) translate(-39.611976, -14.328909) translate(25.111976, 5.828909)" fill="#1D0BC4">
                    <path d="M25.6783944,2.80328053 C24.9641414,2.80328053 24.3992891,3.07419585 23.8178675,3.51850365 L23.8178675,2.80277956 C23.8178675,1.2574434 22.5660266,0 21.027077,0 C19.4881274,0 18.2362866,1.2574434 18.2362866,2.80277956 L18.2362866,6.10402772 L10.3291856,6.10402772 L10.3291856,2.80277956 C10.3291856,1.2574434 9.07734478,0 7.53839518,0 C5.99944558,0 4.74760475,1.2574434 4.74760475,2.80277956 L4.74760475,3.51844799 C4.28250072,3.07414019 3.60138627,2.80322487 2.8870778,2.80322487 C1.34818362,2.80328053 0.0963427941,4.05933234 0.0963427941,5.60288726 L0.0963427941,11.2166846 C0.0963427941,12.7601839 1.34818362,14.0162913 2.88713322,14.0162913 C3.60138627,14.0162913 4.28250072,13.7454873 4.74766017,13.3011239 L4.74766017,14.0172376 C4.74766017,15.5625738 5.99950099,16.8195719 7.53845059,16.8195719 C9.0774002,16.8195719 10.329241,15.5625738 10.329241,14.0172376 L10.329241,10.7762176 L18.2363974,10.7762176 L18.2363974,14.0172376 C18.2363974,15.5625738 19.4882383,16.8195719 21.0271879,16.8195719 C22.5661375,16.8195719 23.8179783,15.5625738 23.8179783,14.0172376 L23.8179783,13.3011239 C24.3993999,13.745543 24.9641968,14.0162913 25.6785052,14.0162913 C27.2174548,14.0162913 28.4692957,12.7601839 28.4692957,11.2166846 L28.4692957,5.60288726 C28.4692957,4.05933234 27.217344,2.80328053 25.6783944,2.80328053 Z M4.74760475,11.2166846 C4.74760475,12.2450718 3.91298879,13.0818645 2.8870778,13.0818645 C1.86122223,13.0818645 1.02655085,12.2450718 1.02655085,11.2166846 L1.02655085,5.60288726 C1.02655085,4.57450006 1.86116682,3.73770738 2.8870778,3.73770738 C3.91293337,3.73770738 4.74760475,4.57450006 4.74760475,5.60288726 L4.74760475,11.2166846 Z M9.39892213,6.54093224 L9.39892213,10.2786396 L9.39892213,14.0172376 C9.39892213,15.0470164 8.56430616,15.885145 7.53839518,15.885145 C6.51253961,15.885145 5.67786823,15.0470164 5.67786823,14.0172376 L5.67786823,11.2167403 L5.67786823,5.60288726 L5.67786823,2.80277956 C5.67786823,1.77255545 6.51248419,0.93437118 7.53839518,0.93437118 C8.56425075,0.93437118 9.39892213,1.77249979 9.39892213,2.80277956 L9.39892213,6.54093224 L9.39892213,6.54093224 Z M18.236342,9.84173509 L10.3291856,9.84173509 L10.3291856,7.03845456 L18.236342,7.03845456 L18.236342,9.84173509 Z M22.8876594,5.60288726 L22.8876594,11.2166846 L22.8876594,14.017182 C22.8876594,15.0469607 22.0530434,15.8850894 21.0271324,15.8850894 C20.0012769,15.8850894 19.1666055,15.0469607 19.1666055,14.017182 L19.1666055,10.278584 L19.1666055,6.54087658 L19.1666055,2.80277956 C19.1666055,1.77255545 20.0012215,0.93437118 21.0271324,0.93437118 C22.052988,0.93437118 22.8876594,1.77249979 22.8876594,2.80277956 L22.8876594,5.60288726 Z M27.5389214,11.2166846 C27.5389214,12.2450718 26.7043054,13.0818645 25.6783944,13.0818645 C24.6525388,13.0818645 23.8178675,12.2450718 23.8178675,11.2166846 L23.8178675,5.60288726 C23.8178675,4.57450006 24.6524834,3.73770738 25.6783944,3.73770738 C26.70425,3.73770738 27.5389214,4.57450006 27.5389214,5.60288726 L27.5389214,11.2166846 Z" id="Shape"></path>
                </g>
                <g id="dumbbell-gym-svgrepo-com-(1)" opacity="0.44375465" transform="translate(302.964674, 37.261504) rotate(25.000000) translate(-302.964674, -37.261504) translate(288.464674, 28.761504)" fill="#1D0BC4">
                    <path d="M25.6783944,2.80328053 C24.9641414,2.80328053 24.3992891,3.07419585 23.8178675,3.51850365 L23.8178675,2.80277956 C23.8178675,1.2574434 22.5660266,0 21.027077,0 C19.4881274,0 18.2362866,1.2574434 18.2362866,2.80277956 L18.2362866,6.10402772 L10.3291856,6.10402772 L10.3291856,2.80277956 C10.3291856,1.2574434 9.07734478,0 7.53839518,0 C5.99944558,0 4.74760475,1.2574434 4.74760475,2.80277956 L4.74760475,3.51844799 C4.28250072,3.07414019 3.60138627,2.80322487 2.8870778,2.80322487 C1.34818362,2.80328053 0.0963427941,4.05933234 0.0963427941,5.60288726 L0.0963427941,11.2166846 C0.0963427941,12.7601839 1.34818362,14.0162913 2.88713322,14.0162913 C3.60138627,14.0162913 4.28250072,13.7454873 4.74766017,13.3011239 L4.74766017,14.0172376 C4.74766017,15.5625738 5.99950099,16.8195719 7.53845059,16.8195719 C9.0774002,16.8195719 10.329241,15.5625738 10.329241,14.0172376 L10.329241,10.7762176 L18.2363974,10.7762176 L18.2363974,14.0172376 C18.2363974,15.5625738 19.4882383,16.8195719 21.0271879,16.8195719 C22.5661375,16.8195719 23.8179783,15.5625738 23.8179783,14.0172376 L23.8179783,13.3011239 C24.3993999,13.745543 24.9641968,14.0162913 25.6785052,14.0162913 C27.2174548,14.0162913 28.4692957,12.7601839 28.4692957,11.2166846 L28.4692957,5.60288726 C28.4692957,4.05933234 27.217344,2.80328053 25.6783944,2.80328053 Z M4.74760475,11.2166846 C4.74760475,12.2450718 3.91298879,13.0818645 2.8870778,13.0818645 C1.86122223,13.0818645 1.02655085,12.2450718 1.02655085,11.2166846 L1.02655085,5.60288726 C1.02655085,4.57450006 1.86116682,3.73770738 2.8870778,3.73770738 C3.91293337,3.73770738 4.74760475,4.57450006 4.74760475,5.60288726 L4.74760475,11.2166846 Z M9.39892213,6.54093224 L9.39892213,10.2786396 L9.39892213,14.0172376 C9.39892213,15.0470164 8.56430616,15.885145 7.53839518,15.885145 C6.51253961,15.885145 5.67786823,15.0470164 5.67786823,14.0172376 L5.67786823,11.2167403 L5.67786823,5.60288726 L5.67786823,2.80277956 C5.67786823,1.77255545 6.51248419,0.93437118 7.53839518,0.93437118 C8.56425075,0.93437118 9.39892213,1.77249979 9.39892213,2.80277956 L9.39892213,6.54093224 L9.39892213,6.54093224 Z M18.236342,9.84173509 L10.3291856,9.84173509 L10.3291856,7.03845456 L18.236342,7.03845456 L18.236342,9.84173509 Z M22.8876594,5.60288726 L22.8876594,11.2166846 L22.8876594,14.017182 C22.8876594,15.0469607 22.0530434,15.8850894 21.0271324,15.8850894 C20.0012769,15.8850894 19.1666055,15.0469607 19.1666055,14.017182 L19.1666055,10.278584 L19.1666055,6.54087658 L19.1666055,2.80277956 C19.1666055,1.77255545 20.0012215,0.93437118 21.0271324,0.93437118 C22.052988,0.93437118 22.8876594,1.77249979 22.8876594,2.80277956 L22.8876594,5.60288726 Z M27.5389214,11.2166846 C27.5389214,12.2450718 26.7043054,13.0818645 25.6783944,13.0818645 C24.6525388,13.0818645 23.8178675,12.2450718 23.8178675,11.2166846 L23.8178675,5.60288726 C23.8178675,4.57450006 24.6524834,3.73770738 25.6783944,3.73770738 C26.70425,3.73770738 27.5389214,4.57450006 27.5389214,5.60288726 L27.5389214,11.2166846 Z" id="Shape"></path>
                </g>
            </g>
        </g>
    </g>
</svg>